<svg width="447" height="630" viewBox="0 0 447 630" fill="none" xmlns="http://www.w3.org/2000/svg">
<path d="M379.056 334.303C388.077 392.263 362.884 429.71 328 427.972C311.273 427.14 291.301 401.222 274.878 395.451C253.422 387.891 234.863 397.681 214.363 399.118C163.361 402.671 164.031 373.338 129.666 335.513C105.528 308.927 66.5763 311.837 53.6758 265.28C37.8699 208.366 83.1778 180.86 117.597 189.302C157.147 198.979 168.099 129.578 228.506 137.264C287.868 144.824 366.352 246.96 379.056 334.303Z" fill="#2F3F58"/>
<path d="M223.5 538.726C319.232 538.726 396.837 532.34 396.837 524.462C396.837 516.585 319.232 510.199 223.5 510.199C127.768 510.199 50.1621 516.585 50.1621 524.462C50.1621 532.34 127.768 538.726 223.5 538.726Z" fill="#2F3F58"/>
<path d="M232.806 460.53H118.759C116.925 460.493 115.169 459.481 113.842 457.695C112.516 455.91 111.717 453.484 111.607 450.904L101.379 171.751C101.323 170.509 101.449 169.264 101.749 168.094C102.05 166.924 102.519 165.854 103.126 164.952C103.734 164.049 104.467 163.333 105.281 162.849C106.094 162.364 106.969 162.122 107.852 162.137H221.9C223.733 162.17 225.489 163.18 226.816 164.963C228.142 166.747 228.941 169.171 229.052 171.751L239.261 450.904C239.318 452.144 239.192 453.387 238.893 454.556C238.593 455.725 238.126 456.794 237.521 457.697C236.915 458.6 236.184 459.318 235.373 459.805C234.562 460.293 233.688 460.539 232.806 460.53Z" fill="#FF683B"/>
<path opacity="0.8" d="M232.806 460.53H118.759C116.925 460.493 115.169 459.481 113.842 457.695C112.516 455.91 111.717 453.484 111.607 450.904L101.379 171.751C101.323 170.509 101.449 169.264 101.749 168.094C102.05 166.924 102.519 165.854 103.126 164.952C103.734 164.049 104.467 163.333 105.281 162.849C106.094 162.364 106.969 162.122 107.852 162.137H221.9C223.733 162.17 225.489 163.18 226.816 164.963C228.142 166.747 228.941 169.171 229.052 171.751L239.261 450.904C239.318 452.144 239.192 453.387 238.893 454.556C238.593 455.725 238.126 456.794 237.521 457.697C236.915 458.6 236.184 459.318 235.373 459.805C234.562 460.293 233.688 460.539 232.806 460.53Z" fill="white"/>
<path d="M210.644 153.04H198.03V154.3H210.644V153.04Z" fill="#FF683B"/>
<path d="M193.658 153.04H189.036V154.3H193.658V153.04Z" fill="#FF683B"/>
<path d="M237.714 442.814H128.646C126.89 442.79 125.205 441.83 123.931 440.125C122.657 438.421 121.889 436.1 121.781 433.629L112.018 166.635C111.964 165.447 112.084 164.255 112.372 163.136C112.66 162.016 113.109 160.992 113.69 160.129C114.272 159.265 114.974 158.58 115.752 158.117C116.531 157.654 117.369 157.422 118.213 157.437H227.281C229.038 157.464 230.721 158.428 231.994 160.135C233.266 161.842 234.032 164.164 234.138 166.635L243.901 433.629C243.955 434.816 243.835 436.005 243.548 437.123C243.26 438.241 242.812 439.264 242.231 440.126C241.65 440.989 240.949 441.673 240.172 442.135C239.395 442.598 238.558 442.829 237.714 442.814Z" fill="#FF683B"/>
<path d="M237.714 436.678H128.646C128.007 436.647 127.397 436.286 126.934 435.664C126.471 435.041 126.186 434.2 126.134 433.301L116.363 166.32C116.341 165.965 116.372 165.607 116.455 165.27C116.539 164.934 116.672 164.626 116.846 164.367C117.02 164.109 117.231 163.905 117.466 163.771C117.7 163.636 117.952 163.573 118.204 163.586H227.272C227.911 163.62 228.518 163.982 228.979 164.604C229.44 165.227 229.724 166.066 229.776 166.962L239.592 433.944C239.613 434.298 239.582 434.654 239.498 434.989C239.415 435.325 239.283 435.632 239.11 435.89C238.937 436.148 238.727 436.352 238.494 436.487C238.262 436.623 238.011 436.688 237.759 436.678H237.714ZM118.204 163.901C117.982 163.891 117.761 163.946 117.555 164.063C117.348 164.18 117.162 164.357 117.006 164.581C116.857 164.814 116.743 165.087 116.671 165.383C116.599 165.68 116.57 165.994 116.586 166.307L126.349 433.289C126.399 434.106 126.659 434.87 127.08 435.437C127.502 436.003 128.056 436.332 128.637 436.363H237.705C237.927 436.375 238.147 436.321 238.352 436.204C238.557 436.086 238.742 435.909 238.894 435.683C239.047 435.453 239.164 435.181 239.236 434.883C239.309 434.586 239.336 434.27 239.315 433.957L229.561 166.975C229.513 166.158 229.255 165.395 228.835 164.828C228.415 164.262 227.862 163.932 227.281 163.901H118.204Z" fill="white"/>
<path opacity="0.3" d="M199.565 260.89C211.97 242.949 211.162 213.483 197.76 195.076C184.358 176.669 163.438 176.292 151.033 194.234C138.627 212.175 139.435 241.641 152.837 260.048C166.239 278.455 187.159 278.832 199.565 260.89Z" fill="white"/>
<path d="M202.044 227.569C202.294 233.76 201.411 239.939 199.478 245.511C197.386 251.487 194.139 256.509 190.111 259.998C186.082 263.487 181.436 265.3 176.708 265.23C171.808 265.168 167.003 263.319 162.761 259.863C158.518 256.408 154.983 251.463 152.498 245.511C150.183 240.068 148.851 233.907 148.619 227.569C148.398 222.708 148.892 217.835 150.069 213.256C151.246 208.676 153.081 204.489 155.459 200.955C157.838 197.421 160.708 194.617 163.89 192.718C167.073 190.819 170.499 189.866 173.954 189.92C181.147 190.025 188.043 193.968 193.256 200.954C198.468 207.94 201.608 217.45 202.044 227.569Z" fill="white"/>
<path d="M199.451 245.511C197.36 251.487 194.112 256.509 190.084 259.998C186.055 263.487 181.409 265.3 176.681 265.23C171.781 265.168 166.977 263.319 162.734 259.863C158.492 256.408 154.956 251.463 152.472 245.511C159.265 238.898 167.334 235.38 175.591 235.431C184.068 235.476 192.354 238.977 199.451 245.511Z" fill="#FF683B"/>
<path d="M183.58 226.693C188.049 220.229 187.757 209.611 182.927 202.977C178.096 196.343 170.557 196.205 166.088 202.669C161.619 209.133 161.911 219.751 166.742 226.385C171.572 233.019 179.111 233.157 183.58 226.693Z" fill="#FF683B"/>
<path d="M222.079 338.94H136.675C135.931 338.929 135.218 338.522 134.678 337.799C134.139 337.077 133.814 336.093 133.769 335.047L133.126 317.407C133.103 316.905 133.155 316.402 133.277 315.93C133.399 315.457 133.589 315.025 133.835 314.661C134.081 314.297 134.377 314.008 134.706 313.813C135.035 313.617 135.388 313.52 135.745 313.526H221.149C221.891 313.536 222.603 313.942 223.142 314.662C223.681 315.382 224.007 316.362 224.054 317.407L224.698 335.047C224.721 335.549 224.671 336.054 224.549 336.527C224.428 337.001 224.238 337.435 223.992 337.8C223.746 338.166 223.449 338.456 223.12 338.652C222.791 338.848 222.436 338.946 222.079 338.94Z" fill="white"/>
<path opacity="0.3" d="M195.929 303.786H160.258C159.511 303.778 158.795 303.37 158.253 302.645C157.712 301.919 157.387 300.931 157.344 299.88L157.21 296.1C157.186 295.597 157.237 295.093 157.358 294.619C157.48 294.145 157.669 293.712 157.915 293.346C158.161 292.98 158.458 292.69 158.788 292.494C159.117 292.298 159.472 292.2 159.829 292.207H195.491C196.235 292.217 196.948 292.625 197.487 293.347C198.026 294.07 198.351 295.053 198.396 296.1L198.539 299.88C198.561 300.382 198.51 300.885 198.389 301.358C198.267 301.831 198.079 302.263 197.834 302.629C197.589 302.996 197.294 303.287 196.966 303.486C196.639 303.685 196.286 303.787 195.929 303.786Z" fill="black"/>
<path opacity="0.3" d="M209.196 423.751H155.761C154.496 423.729 153.283 423.033 152.367 421.804C151.45 420.575 150.896 418.903 150.817 417.123L150.505 408.429C150.473 407.574 150.565 406.72 150.776 405.917C150.986 405.115 151.31 404.381 151.729 403.761C152.147 403.141 152.65 402.647 153.209 402.31C153.767 401.973 154.367 401.8 154.975 401.801H208.391C209.656 401.823 210.869 402.519 211.786 403.748C212.703 404.977 213.256 406.649 213.335 408.429L213.648 417.123C213.679 417.975 213.588 418.828 213.378 419.629C213.169 420.43 212.846 421.162 212.43 421.782C212.013 422.402 211.512 422.896 210.956 423.234C210.4 423.573 209.801 423.748 209.196 423.751Z" fill="black"/>
<path d="M223.643 381.604H138.23C137.487 381.59 136.775 381.181 136.236 380.459C135.697 379.738 135.372 378.756 135.324 377.71L134.681 360.07C134.659 359.568 134.71 359.064 134.832 358.591C134.954 358.118 135.144 357.686 135.39 357.32C135.635 356.955 135.932 356.665 136.26 356.468C136.589 356.272 136.943 356.172 137.3 356.177H222.704C223.448 356.188 224.161 356.595 224.7 357.318C225.239 358.04 225.564 359.024 225.61 360.07L226.262 377.71C226.283 378.212 226.23 378.715 226.108 379.187C225.986 379.659 225.796 380.091 225.55 380.456C225.305 380.821 225.009 381.111 224.681 381.308C224.353 381.506 223.999 381.606 223.643 381.604Z" fill="white"/>
<path d="M147.51 326.227C147.534 326.783 147.477 327.341 147.342 327.866C147.207 328.39 146.996 328.869 146.723 329.274C146.451 329.678 146.122 329.999 145.757 330.216C145.393 330.433 145 330.542 144.604 330.536C143.782 330.522 142.994 330.07 142.398 329.27C141.803 328.471 141.444 327.383 141.395 326.227C141.369 325.67 141.425 325.113 141.559 324.588C141.693 324.064 141.903 323.585 142.175 323.18C142.447 322.775 142.775 322.454 143.14 322.237C143.504 322.02 143.896 321.911 144.291 321.917C145.115 321.931 145.904 322.383 146.501 323.182C147.097 323.981 147.458 325.069 147.51 326.227Z" fill="#263238"/>
<path d="M156.924 326.227C156.95 326.783 156.894 327.34 156.759 327.865C156.625 328.389 156.415 328.868 156.143 329.273C155.871 329.678 155.543 329.999 155.179 330.216C154.815 330.433 154.423 330.542 154.027 330.536C153.204 330.525 152.415 330.074 151.819 329.274C151.223 328.474 150.865 327.385 150.818 326.227C150.792 325.67 150.848 325.113 150.982 324.588C151.116 324.064 151.326 323.585 151.598 323.18C151.87 322.775 152.198 322.454 152.563 322.237C152.927 322.02 153.319 321.911 153.714 321.917C154.537 321.928 155.326 322.379 155.922 323.179C156.518 323.979 156.876 325.069 156.924 326.227Z" fill="#263238"/>
<path d="M166.284 326.227C166.31 326.783 166.254 327.34 166.119 327.865C165.985 328.389 165.775 328.868 165.503 329.273C165.231 329.678 164.903 329.999 164.539 330.216C164.175 330.433 163.782 330.542 163.387 330.536C162.564 330.522 161.775 330.071 161.178 329.271C160.581 328.472 160.22 327.385 160.169 326.227C160.144 325.67 160.201 325.112 160.336 324.587C160.472 324.063 160.682 323.584 160.955 323.179C161.228 322.775 161.557 322.454 161.921 322.237C162.286 322.02 162.678 321.911 163.074 321.917C163.896 321.931 164.685 322.383 165.28 323.183C165.875 323.982 166.234 325.07 166.284 326.227Z" fill="#263238"/>
<path d="M175.716 326.227C175.74 326.782 175.683 327.339 175.549 327.863C175.414 328.386 175.204 328.865 174.932 329.269C174.661 329.673 174.333 329.994 173.969 330.212C173.606 330.43 173.214 330.54 172.819 330.536C171.996 330.522 171.207 330.071 170.61 329.271C170.013 328.472 169.653 327.385 169.601 326.227C169.576 325.671 169.633 325.114 169.768 324.59C169.903 324.067 170.112 323.588 170.384 323.184C170.656 322.78 170.984 322.459 171.347 322.241C171.711 322.023 172.102 321.913 172.497 321.917C173.321 321.931 174.11 322.383 174.707 323.182C175.303 323.981 175.664 325.069 175.716 326.227Z" fill="#263238"/>
<path d="M149.092 368.865C149.118 369.421 149.062 369.979 148.928 370.503C148.794 371.027 148.584 371.507 148.312 371.911C148.04 372.316 147.712 372.637 147.347 372.854C146.983 373.072 146.591 373.181 146.196 373.174C145.372 373.161 144.583 372.709 143.986 371.91C143.39 371.111 143.029 370.023 142.977 368.865C142.953 368.308 143.01 367.75 143.145 367.226C143.28 366.702 143.491 366.222 143.764 365.818C144.036 365.413 144.365 365.093 144.73 364.875C145.094 364.658 145.487 364.549 145.883 364.556C146.705 364.569 147.493 365.022 148.089 365.821C148.684 366.62 149.043 367.708 149.092 368.865Z" fill="#263238"/>
<path d="M158.488 368.865C158.513 369.421 158.456 369.978 158.321 370.501C158.186 371.024 157.977 371.503 157.705 371.907C157.433 372.312 157.105 372.633 156.742 372.851C156.378 373.069 155.987 373.179 155.592 373.174C154.769 373.161 153.979 372.709 153.383 371.91C152.786 371.111 152.425 370.023 152.373 368.865C152.347 368.309 152.403 367.751 152.538 367.227C152.672 366.703 152.882 366.223 153.154 365.818C153.426 365.414 153.754 365.093 154.118 364.875C154.482 364.658 154.874 364.549 155.27 364.556C156.093 364.569 156.882 365.021 157.479 365.82C158.076 366.619 158.436 367.707 158.488 368.865Z" fill="#263238"/>
<path d="M167.884 368.865C167.909 369.422 167.852 369.98 167.716 370.504C167.581 371.028 167.371 371.508 167.098 371.912C166.825 372.316 166.496 372.637 166.132 372.854C165.767 373.072 165.375 373.18 164.979 373.174C164.156 373.163 163.367 372.712 162.771 371.912C162.175 371.112 161.817 370.023 161.769 368.865C161.743 368.309 161.799 367.751 161.934 367.227C162.068 366.703 162.278 366.223 162.55 365.818C162.822 365.414 163.15 365.093 163.514 364.875C163.878 364.658 164.27 364.549 164.666 364.556C165.489 364.569 166.278 365.021 166.875 365.82C167.472 366.619 167.832 367.707 167.884 368.865Z" fill="#263238"/>
<path d="M177.271 368.865C177.297 369.421 177.241 369.979 177.107 370.503C176.972 371.027 176.763 371.507 176.491 371.911C176.219 372.316 175.89 372.637 175.526 372.854C175.162 373.072 174.77 373.181 174.374 373.174C173.551 373.161 172.762 372.709 172.165 371.91C171.568 371.111 171.208 370.023 171.156 368.865C171.131 368.308 171.188 367.75 171.324 367.226C171.459 366.702 171.67 366.222 171.942 365.818C172.215 365.413 172.544 365.093 172.909 364.875C173.273 364.658 173.666 364.549 174.061 364.556C174.884 364.567 175.674 365.018 176.27 365.818C176.865 366.618 177.223 367.707 177.271 368.865Z" fill="#263238"/>
<path d="M186.667 368.865C186.693 369.421 186.637 369.979 186.503 370.503C186.368 371.027 186.159 371.507 185.887 371.912C185.615 372.316 185.286 372.637 184.922 372.854C184.558 373.072 184.166 373.181 183.77 373.174C182.947 373.161 182.158 372.709 181.561 371.91C180.964 371.111 180.604 370.023 180.552 368.865C180.527 368.309 180.584 367.752 180.719 367.229C180.854 366.705 181.064 366.227 181.335 365.823C181.607 365.418 181.935 365.097 182.298 364.879C182.662 364.661 183.053 364.551 183.449 364.556C184.272 364.569 185.061 365.021 185.658 365.82C186.255 366.619 186.615 367.707 186.667 368.865Z" fill="#263238"/>
<path d="M196.063 368.865C196.088 369.422 196.03 369.98 195.895 370.504C195.76 371.028 195.549 371.508 195.277 371.912C195.004 372.316 194.675 372.637 194.31 372.854C193.946 373.072 193.553 373.18 193.158 373.174C192.335 373.16 191.547 372.708 190.952 371.909C190.356 371.109 189.998 370.022 189.948 368.865C189.922 368.309 189.978 367.751 190.112 367.227C190.247 366.703 190.456 366.223 190.728 365.818C191 365.414 191.329 365.093 191.693 364.875C192.057 364.658 192.449 364.549 192.845 364.556C193.668 364.569 194.457 365.021 195.054 365.82C195.651 366.619 196.011 367.707 196.063 368.865Z" fill="#263238"/>
<path d="M297.702 222.541C297.925 223.02 298.042 223.272 298.185 223.612L298.587 224.545C298.846 225.175 299.079 225.805 299.302 226.422C299.749 227.682 300.196 228.942 300.554 230.202C301.303 232.705 301.948 235.267 302.485 237.875C303.567 243.029 304.28 248.322 304.613 253.676L304.675 254.671C304.683 254.873 304.683 255.075 304.675 255.276V255.944C304.69 256.82 304.654 257.697 304.568 258.565C304.396 260.174 304.097 261.75 303.674 263.264C302.888 265.969 301.848 268.512 300.581 270.824C298.216 275.091 295.411 278.833 292.257 281.925L289.79 277.855C292.035 274.281 294.024 270.403 295.726 266.276C296.492 264.404 297.093 262.407 297.514 260.329C297.685 259.449 297.784 258.544 297.809 257.632C297.837 257.243 297.837 256.85 297.809 256.46V256.196C297.818 256.079 297.818 255.96 297.809 255.843L297.702 254.961C297.127 250.265 296.314 245.633 295.27 241.101C294.752 238.846 294.117 236.666 293.482 234.536C293.169 233.465 292.812 232.42 292.454 231.412L291.9 229.925L291.623 229.232L291.39 228.677L297.702 222.541Z" fill="#803E3C"/>
<path d="M289.388 281.95L292.624 291.589L295.19 283.437C295.19 283.437 292.91 276.381 289.826 277.036L289.388 281.95Z" fill="#7F3E3B"/>
<path d="M294.939 292.068L297.514 286.121L295.19 283.437L292.624 291.589L294.939 292.068Z" fill="#7F3E3B"/>
<path d="M280.385 514.357C281.055 514.334 281.72 514.207 282.37 513.979C282.403 513.965 282.432 513.939 282.456 513.904C282.479 513.868 282.496 513.825 282.504 513.778C282.509 513.729 282.505 513.68 282.49 513.635C282.476 513.59 282.453 513.552 282.423 513.526C282.164 513.286 279.893 511.22 279.017 511.774C278.92 511.838 278.837 511.937 278.776 512.061C278.714 512.185 278.678 512.329 278.669 512.48C278.642 512.708 278.654 512.942 278.706 513.161C278.757 513.381 278.846 513.579 278.964 513.74C279.369 514.181 279.874 514.4 280.385 514.357ZM281.86 513.614C280.564 513.992 279.581 513.929 279.178 513.437C279.096 513.323 279.036 513.18 279.003 513.024C278.97 512.868 278.966 512.702 278.991 512.543C278.991 512.329 279.08 512.266 279.142 512.228C279.625 511.925 280.939 512.82 281.86 513.614Z" fill="#FF683B"/>
<path d="M282.325 513.979H282.414C282.441 513.955 282.464 513.921 282.479 513.881C282.495 513.842 282.503 513.798 282.504 513.752C282.504 513.626 282.504 510.59 281.681 509.569C281.58 509.441 281.461 509.346 281.331 509.289C281.202 509.233 281.065 509.216 280.93 509.242C280.789 509.243 280.653 509.313 280.544 509.439C280.435 509.565 280.36 509.74 280.331 509.935C280.162 511.132 281.52 513.4 282.236 513.979H282.325ZM281.047 509.708C281.119 509.705 281.191 509.722 281.259 509.759C281.326 509.796 281.388 509.851 281.44 509.922C281.912 510.902 282.155 512.064 282.137 513.248C281.422 512.442 280.573 510.728 280.68 510.01C280.68 509.897 280.743 509.746 280.966 509.708H281.047Z" fill="#FF683B"/>
<path d="M271.946 509.216C271.967 509.18 271.98 509.135 271.985 509.088C271.99 509.042 271.986 508.994 271.973 508.95C271.96 508.906 271.939 508.868 271.912 508.84C271.886 508.811 271.854 508.793 271.821 508.788C271.454 508.788 268.245 508.574 267.511 509.683V509.758C267.451 509.867 267.412 509.997 267.397 510.134C267.383 510.271 267.395 510.411 267.431 510.539C267.479 510.756 267.563 510.953 267.677 511.113C267.791 511.273 267.93 511.392 268.084 511.459C269.121 511.913 270.953 510.262 271.955 509.242L271.946 509.216ZM267.78 510.01C268.182 509.405 269.952 509.242 271.275 509.267C269.889 510.602 268.736 511.232 268.155 510.98C268.054 510.937 267.962 510.859 267.887 510.754C267.812 510.648 267.757 510.518 267.726 510.376C267.708 510.327 267.699 510.273 267.699 510.218C267.699 510.163 267.708 510.109 267.726 510.061L267.78 510.01Z" fill="#FF683B"/>
<path d="M271.946 509.216C271.959 509.177 271.966 509.134 271.966 509.09C271.966 509.047 271.959 509.004 271.946 508.964C271.901 508.864 270.9 506.444 269.72 505.94C269.55 505.87 269.372 505.85 269.197 505.88C269.022 505.911 268.853 505.991 268.7 506.117C268.271 506.47 268.245 506.885 268.298 507.15C268.531 508.322 270.81 509.355 271.794 509.342C271.825 509.342 271.855 509.33 271.881 509.308C271.908 509.286 271.93 509.254 271.946 509.216ZM268.736 506.696C268.787 506.627 268.844 506.567 268.906 506.52C269.016 506.421 269.141 506.357 269.271 506.333C269.4 506.309 269.532 506.326 269.657 506.381C270.435 506.671 271.159 508.082 271.49 508.775C270.426 508.612 268.808 507.692 268.674 506.986C268.662 506.933 268.662 506.876 268.673 506.822C268.684 506.768 268.706 506.72 268.736 506.684V506.696Z" fill="#FF683B"/>
<path d="M281.789 185.636C280.895 191.936 278.964 205.556 282.066 209.74C282.066 209.74 280.85 216.04 272.598 216.04C263.515 216.04 268.262 209.74 268.262 209.74C273.215 208.076 273.09 202.885 272.223 198.022L281.789 185.636Z" fill="#7F3E3B"/>
<path d="M266.662 170.869C266.712 170.88 266.764 170.88 266.814 170.869C266.857 170.839 266.894 170.798 266.926 170.748C266.957 170.698 266.98 170.639 266.995 170.576C267.01 170.513 267.016 170.446 267.013 170.379C267.009 170.313 266.996 170.248 266.975 170.188C266.735 169.47 266.375 168.843 265.927 168.36C265.479 167.878 264.956 167.554 264.4 167.416C264.307 167.405 264.215 167.445 264.142 167.527C264.068 167.609 264.02 167.727 264.007 167.857C263.997 167.989 264.024 168.121 264.083 168.225C264.141 168.329 264.226 168.396 264.32 168.412C264.758 168.53 265.17 168.794 265.521 169.182C265.873 169.57 266.154 170.07 266.34 170.642C266.375 170.716 266.423 170.777 266.479 170.816C266.536 170.856 266.599 170.874 266.662 170.869Z" fill="#263238"/>
<path d="M263.953 176.4C263.25 178.239 262.371 179.935 261.343 181.44C261.621 181.799 261.952 182.068 262.311 182.229C262.671 182.39 263.051 182.439 263.426 182.372L263.953 176.4Z" fill="#630F0F"/>
<path d="M264.624 174.976C264.552 175.82 264.168 176.45 263.784 176.387C263.399 176.324 263.131 175.581 263.202 174.737C263.274 173.893 263.658 173.263 264.096 173.326C264.535 173.389 264.687 174.132 264.624 174.976Z" fill="#263238"/>
<path d="M264.213 173.401L262.836 172.62C262.836 172.62 263.417 174.283 264.213 173.401Z" fill="#263238"/>
<path d="M279.84 506.822L272.545 509.216L268.11 485.579L275.405 483.185L279.84 506.822Z" fill="#7F3E3B"/>
<path d="M291.033 513.727H283.55L284.131 489.296H291.623L291.033 513.727Z" fill="#7F3E3B"/>
<path d="M282.951 512.505H291.363C291.509 512.503 291.651 512.576 291.761 512.711C291.871 512.845 291.943 513.032 291.962 513.236L292.919 522.61C292.938 522.847 292.921 523.087 292.869 523.315C292.818 523.542 292.732 523.751 292.619 523.928C292.506 524.106 292.367 524.247 292.213 524.344C292.058 524.44 291.89 524.489 291.721 524.488C288.789 524.425 287.376 524.173 283.675 524.173C281.395 524.173 278.07 524.513 274.932 524.513C271.794 524.513 271.615 520.128 272.929 519.737C278.794 517.948 279.723 515.504 281.699 513.16C282.048 512.74 282.492 512.508 282.951 512.505Z" fill="#263238"/>
<path d="M271.901 507.641L279.545 502.69C279.675 502.602 279.823 502.585 279.961 502.641C280.099 502.696 280.218 502.821 280.296 502.992L283.952 510.955C284.038 511.16 284.092 511.388 284.111 511.624C284.13 511.86 284.114 512.1 284.063 512.326C284.013 512.553 283.929 512.762 283.817 512.941C283.706 513.119 283.569 513.262 283.416 513.362C280.734 515.025 279.375 515.642 276.014 517.822C273.949 519.158 269.756 522.232 266.913 524.122C264.07 526.012 262.604 522.094 263.677 520.96C268.477 515.92 269.854 512.303 270.954 509.015C271.14 508.409 271.477 507.92 271.901 507.641Z" fill="#263238"/>
<path opacity="0.2" d="M268.11 485.579L270.488 498.254L277.694 495.369L275.414 483.185L268.11 485.579Z" fill="black"/>
<path opacity="0.2" d="M291.623 489.296H284.131L283.836 501.896H291.328L291.623 489.296Z" fill="black"/>
<path d="M295.02 212.134C298.131 213.104 301.457 228.866 301.457 228.866L292.66 242.059C292.66 242.059 285.356 227.241 286.849 221.798C288.36 216.115 291.31 211 295.02 212.134Z" fill="#263238"/>
<path opacity="0.4" d="M290.049 222.176C288.476 220.147 287.412 220.752 286.688 222.365C285.973 227.052 290.21 236.867 291.918 240.584C292.705 236.149 293.608 226.8 290.049 222.176Z" fill="black"/>
<path d="M255.603 212.449C255.603 212.449 252.027 214.213 259.179 276.142H289.575C289.066 258.703 289.048 247.943 294.939 212.134C290.68 210.895 286.363 210.095 282.021 209.74C277.426 209.273 272.813 209.273 268.218 209.74C262.326 210.508 255.603 212.449 255.603 212.449Z" fill="#263238"/>
<path opacity="0.4" d="M255.326 236.212C255.523 239.224 255.782 242.613 256.122 246.443C258.616 243.281 260.654 234.284 259.903 229.043C258.122 231.081 256.577 233.5 255.326 236.212Z" fill="black"/>
<path d="M258.58 226.8C256.94 232.618 255.093 238.316 253.047 243.873C251.023 249.63 248.629 255.113 245.895 260.253L245.322 261.248L245.036 261.74C244.938 261.904 244.858 262.055 244.706 262.282C244.168 263.109 243.568 263.852 242.918 264.499C241.768 265.621 240.509 266.504 239.181 267.12C236.864 268.163 234.459 268.765 232.029 268.909C227.478 269.164 222.923 268.593 218.476 267.208L218.967 261.916C221.023 261.916 223.178 261.916 225.225 261.677C227.282 261.534 229.33 261.214 231.358 260.719C233.242 260.305 235.085 259.577 236.847 258.552C237.559 258.123 238.224 257.555 238.823 256.864C239.052 256.594 239.258 256.29 239.44 255.956C239.44 255.956 239.547 255.755 239.619 255.616L239.824 255.2L240.244 254.369C242.488 249.485 244.486 244.387 246.225 239.11C248.013 233.755 249.801 228.199 251.437 222.73L258.58 226.8Z" fill="#803E3C"/>
<path d="M255.604 212.449C251.876 213.709 247.298 228.123 247.298 228.123L255.023 244.125C255.023 244.125 265.312 225.868 264.088 220.298C262.836 214.49 260.154 210.886 255.604 212.449Z" fill="#263238"/>
<path d="M221.113 262.723L214.667 258.527L214.023 267.561C214.023 267.561 219.387 269.791 222.069 267.561L221.113 262.723Z" fill="#7F3E3B"/>
<path d="M210.814 257.62L210.197 264.499L214.024 267.561L214.667 258.527L210.814 257.62Z" fill="#7F3E3B"/>
<path d="M285.025 175.594C283.657 185.888 283.237 190.298 279.053 194.972C272.795 202.003 264.079 197.392 263.238 186.732C262.469 177.131 264.829 161.91 272.402 159.012C274.07 158.363 275.828 158.328 277.508 158.909C279.189 159.49 280.736 160.668 282.001 162.33C283.267 163.993 284.21 166.085 284.739 168.407C285.268 170.729 285.367 173.203 285.025 175.594Z" fill="#7F3E3B"/>
<path d="M268.978 177.761C268.558 183.015 268.397 196.661 276.586 197.089C286.607 197.606 289.611 185.535 288.717 180.709C293.938 174.724 294.689 164.43 288.825 156.555C282.96 148.68 270.051 153.077 266.475 160.751C261.942 170.264 268.978 177.761 268.978 177.761Z" fill="#263238"/>
<path d="M279.018 159.617C278.535 154.073 278.91 150.255 282.594 150.255C286.277 150.255 291.301 152.132 293.143 157.437C294.984 162.742 295.136 171.045 289.996 170.201C284.855 169.357 279.599 166.244 279.018 159.617Z" fill="#FF683B"/>
<path d="M284.721 158.281C283.827 151.679 288.02 133.081 298.203 131.821C302.923 131.254 305.104 138.411 302.673 139.595C307.143 139.52 310.004 147.848 305.838 149.096C309.127 152.069 308.314 158.168 303.62 161.167C300.125 163.435 285.928 167.429 284.721 158.281Z" fill="#263238"/>
<path d="M295.601 165.375C292.32 165.375 288.896 164.695 286.768 162.691C286.173 162.186 285.672 161.488 285.307 160.655C284.942 159.823 284.722 158.879 284.667 157.903C284.665 157.82 284.684 157.739 284.722 157.676C284.761 157.613 284.814 157.573 284.873 157.563C284.902 157.558 284.932 157.561 284.961 157.573C284.99 157.585 285.016 157.606 285.039 157.633C285.062 157.66 285.08 157.694 285.093 157.732C285.106 157.77 285.113 157.811 285.114 157.853C285.168 158.734 285.369 159.584 285.699 160.335C286.03 161.086 286.482 161.716 287.018 162.175C291.068 165.955 300.428 164.695 303.343 163.435C305.864 162.275 307.572 160.02 307.911 157.424C308.017 156.472 307.934 155.497 307.67 154.607C307.407 153.717 306.973 152.948 306.418 152.384C306.397 152.356 306.38 152.322 306.368 152.284C306.357 152.246 306.351 152.205 306.351 152.164C306.351 152.123 306.357 152.082 306.368 152.044C306.38 152.006 306.397 151.972 306.418 151.943C306.46 151.886 306.516 151.853 306.575 151.853C306.633 151.853 306.689 151.886 306.731 151.943C307.355 152.585 307.84 153.459 308.132 154.467C308.424 155.475 308.512 156.577 308.385 157.651C308.019 160.486 306.204 162.905 303.522 164.14C300.934 165.06 298.269 165.475 295.601 165.375Z" fill="#263238"/>
<path d="M266.698 176.4C265.865 178.046 265.522 180.085 265.741 182.083C266.036 184.729 267.86 184.905 269.183 183.217C270.506 181.528 271.66 178.479 270.685 176.287C270.469 175.813 270.17 175.426 269.817 175.161C269.464 174.896 269.069 174.763 268.669 174.774C268.269 174.786 267.878 174.941 267.533 175.226C267.188 175.51 266.901 175.915 266.698 176.4Z" fill="#7F3E3B"/>
<path d="M267.208 276.142C267.208 276.142 271.552 348.579 276.067 389.403C279.706 422.377 282.584 499.451 282.584 499.451H292.794C292.794 499.451 296.423 424.683 294.582 392.074C289.906 309.544 300.339 302.816 289.602 276.154L267.208 276.142Z" fill="#FF683B"/>
<path opacity="0.4" d="M280.063 303.521C276.017 309.507 272.752 316.451 270.417 324.034C271.606 340.314 273.019 358.382 274.52 374.207C280.683 351.721 282.593 327.362 280.063 303.521Z" fill="black"/>
<path d="M260.065 275.688C260.065 275.688 250.633 354.803 249.149 390.461C252.85 423.436 267.994 493.139 267.994 493.139L277.283 488.389C277.283 488.389 272.143 412.385 266.555 391.583C279.134 331.897 288.378 316.802 285.687 276.142C279.241 276.142 260.065 275.688 260.065 275.688Z" fill="#FF683B"/>
<path d="M266.752 496.616L279.303 491.816L278.588 484.76L265.151 489.888L266.752 496.616Z" fill="#263238"/>
<path d="M281.181 499.741H294.189L294.868 493.315L281.109 492.66L281.181 499.741Z" fill="#263238"/>
<path d="M290.049 273.622L291.417 277.465C291.524 277.767 291.274 278.069 290.926 278.069H259.028C258.759 278.069 258.527 277.88 258.509 277.628L258.232 273.848C258.232 273.584 258.455 273.357 258.75 273.357H289.549C289.641 273.339 289.735 273.354 289.823 273.4C289.91 273.446 289.988 273.523 290.049 273.622Z" fill="#FF683B"/>
<path opacity="0.5" d="M290.049 273.622L291.417 277.465C291.524 277.767 291.274 278.069 290.926 278.069H259.028C258.759 278.069 258.527 277.88 258.509 277.628L258.232 273.848C258.232 273.584 258.455 273.357 258.75 273.357H289.549C289.641 273.339 289.735 273.354 289.823 273.4C289.91 273.446 289.988 273.523 290.049 273.622Z" fill="black"/>
<path d="M285.91 278.46H286.733C286.903 278.46 287.028 278.334 287.019 278.195L286.626 273.155C286.626 273.004 286.474 272.891 286.313 272.891H285.481C285.32 272.891 285.195 273.004 285.204 273.155L285.589 278.195C285.606 278.359 285.749 278.46 285.91 278.46Z" fill="#FF683B"/>
<path d="M274.842 241.769C274.744 241.767 274.648 241.72 274.569 241.637C274.49 241.553 274.433 241.436 274.404 241.303C271.49 226.107 265.464 213.583 262.541 211.693C262.314 211.496 262.041 211.433 261.781 211.516C261.727 211.556 261.668 211.58 261.607 211.587C261.546 211.594 261.485 211.583 261.427 211.555C261.369 211.527 261.316 211.482 261.271 211.424C261.226 211.366 261.19 211.296 261.165 211.218C261.14 211.139 261.126 211.054 261.126 210.968C261.125 210.882 261.136 210.797 261.16 210.718C261.183 210.638 261.218 210.566 261.261 210.506C261.305 210.447 261.357 210.4 261.414 210.37C261.659 210.243 261.92 210.193 262.179 210.224C262.439 210.254 262.69 210.364 262.916 210.546C266.01 212.612 272.124 224.96 275.182 240.496C277.372 240.496 280.752 240.08 281.574 239.98C282.593 238.266 290.085 225.061 287.287 210.609C287.271 210.53 287.266 210.446 287.273 210.364C287.28 210.282 287.299 210.203 287.328 210.131C287.357 210.06 287.396 209.997 287.443 209.947C287.489 209.897 287.543 209.861 287.6 209.84C287.713 209.798 287.834 209.82 287.937 209.903C288.039 209.985 288.114 210.121 288.145 210.281C291.265 226.359 282.218 240.862 282.119 241C282.084 241.061 282.041 241.112 281.992 241.149C281.943 241.185 281.889 241.208 281.833 241.214C281.789 241.214 277.328 241.769 274.842 241.769Z" fill="#FF683B"/>
<path d="M289.656 250.664C284.784 237.8 282.79 236.893 281.923 232.76C282.58 230.449 283.518 228.317 284.694 226.46C284.104 226.22 282.835 225.868 282.012 225.653C282.102 225.086 282.2 224.532 282.29 223.99C281.395 223.849 280.489 223.909 279.608 224.167V222.907C278.472 222.558 277.306 222.452 276.148 222.592C276.249 223.188 276.347 223.793 276.443 224.406C275.549 224.645 274.19 225.036 273.537 225.301C274.805 227.325 275.737 229.723 276.264 232.319C273.636 238.682 263.426 279.581 280.037 282.719C296.647 285.856 294.519 263.542 289.656 250.664Z" fill="#FF683B"/>
<path opacity="0.4" d="M289.656 250.664C284.784 237.8 282.79 236.893 281.923 232.76C282.58 230.449 283.518 228.317 284.694 226.46C284.104 226.22 282.835 225.868 282.012 225.653C282.102 225.086 282.2 224.532 282.29 223.99C281.395 223.849 280.489 223.909 279.608 224.167V222.907C278.472 222.558 277.306 222.452 276.148 222.592C276.249 223.188 276.347 223.793 276.443 224.406C275.549 224.645 274.19 225.036 273.537 225.301C274.805 227.325 275.737 229.723 276.264 232.319C273.636 238.682 263.426 279.581 280.037 282.719C296.647 285.856 294.519 263.542 289.656 250.664Z" fill="white"/>
<path d="M275.584 231.097C275.481 231.746 275.436 232.41 275.45 233.075C275.45 233.541 276.344 233.856 277.337 233.995C278.329 234.133 282.495 234.36 282.361 233.705C282.227 233.05 282.567 232.155 282.584 231.601C282.602 231.046 280.931 231.021 279.527 231.097C278.123 231.172 275.862 230.391 275.584 231.097Z" fill="#FF683B"/>
<path d="M265.92 278.46H266.743C266.904 278.46 267.029 278.334 267.02 278.195L266.635 273.155C266.635 273.004 266.483 272.891 266.313 272.891H265.518C265.357 272.891 265.232 273.004 265.241 273.155L265.625 278.195C265.607 278.359 265.75 278.46 265.92 278.46Z" fill="#FF683B"/>
</svg>
