<svg width="447" height="630" viewBox="0 0 447 630" fill="none" xmlns="http://www.w3.org/2000/svg">
  <path
    d="M0.488281 619.73L56.2439 619.362L112 619.224L223.5 618.964L335.001 619.224L390.756 619.362L446.512 619.73L390.756 620.113L335.001 620.236L223.5 620.496L112 620.236L56.2439 620.113L0.488281 619.73Z"
    fill="#263238" />
  <path d="M297.678 429.979H352.414L380.482 209.356L330.368 176.829L297.678 429.979Z" fill="#FF683B" />
  <g opacity="0.4">
    <path d="M297.678 429.979H352.414L380.482 209.356L330.368 176.829L297.678 429.979Z" fill="black" />
  </g>
  <path d="M149.951 429.979H297.678L330.368 176.829H182.641L149.951 429.979Z" fill="#FF683B" />
  <path opacity="0.2" d="M149.951 429.979H297.678L330.368 176.829H182.641L149.951 429.979Z"
    fill="black" />
  <path d="M111.132 554.753H281.133V429.979H111.132V554.753Z" fill="#FF683B" />
  <path opacity="0.2" d="M111.132 554.753H281.133V429.979H111.132V554.753Z" fill="black" />
  <path d="M111.132 430.5L281.133 430.5V376.053H111.132V430.5Z" fill="#FF683B" />
  <path opacity="0.2" d="M111.132 430.5L281.133 430.5V376.053H111.132V430.5Z" fill="black" />
  <path d="M111.142 554.768H134.057L168.2 288.62H111.142V554.768Z" fill="#FF683B" />
  <g opacity="0.4">
    <path d="M111.142 554.768H134.057L168.2 288.62H111.142V554.768Z" fill="black" />
  </g>
  <path d="M65.0428 554.768H111.132L111.132 288.62H65.0428L65.0428 554.768Z" fill="#FF683B" />
  <path opacity="0.2" d="M65.0428 554.768H111.132L111.132 288.62H65.0428L65.0428 554.768Z"
    fill="black" />
  <path d="M327.222 554.768H411.099V288.62H327.222V554.768Z" fill="#FF683B" />
  <g opacity="0.4">
    <path d="M327.222 554.768H411.099V288.62H327.222V554.768Z" fill="black" />
  </g>
  <path d="M281.133 554.768H327.221V288.62H281.133V554.768Z" fill="#FF683B" />
  <path opacity="0.2" d="M281.133 554.768H327.221V288.62H281.133V554.768Z" fill="black" />
  <path
    d="M315.927 288.62L298.568 288.175L281.209 287.869H280.688V288.62L280.493 317.069L280.417 368.527C280.362 387.488 280.319 406.465 280.417 425.426C280.514 444.388 280.482 463.38 280.655 482.341C280.829 501.302 280.948 520.279 281.23 539.255C281.52 520.279 281.715 501.307 281.816 482.341C281.99 463.38 282.001 444.403 282.044 425.426C282.087 406.45 282.044 387.488 282.044 368.527L281.968 317.069L281.773 288.62L281.241 289.371L298.6 289.064L315.927 288.62Z"
    fill="#263238" />
  <path
    d="M111.143 288.62C110.784 307.658 110.611 349.688 110.47 368.726L110.275 425.856L110.47 482.985L110.709 511.542L111.143 540.099L111.566 511.542L111.804 482.985L112.01 425.856L111.804 368.726C111.663 349.688 111.501 307.658 111.143 288.62Z"
    fill="#263238" />
  <path
    d="M111.142 429.994C126.05 430.5 140.957 430.73 155.864 430.929L200.597 431.221L236.4 430.929L258.761 430.592L281.122 429.994L258.761 429.381L236.4 429.044L200.597 428.768L155.864 429.044C140.957 429.197 126.05 429.488 111.142 429.994Z"
    fill="#263238" />
  <path
    d="M111.142 376.038C126.05 376.544 140.957 376.789 155.864 376.988L200.597 377.264L236.4 376.988L258.761 376.651L281.122 376.038L258.761 375.44L236.4 375.103L200.597 374.812L155.864 375.103C140.957 375.302 126.05 375.548 111.142 376.038Z"
    fill="#263238" />
  <path
    d="M379.223 554.768L380.362 574.465L383.01 619.975H395.15L397.798 574.465L398.937 554.768H379.223Z"
    fill="#263238" />
  <path d="M398.937 554.768H379.223L380.362 574.465H397.798L398.937 554.768Z" fill="#263238" />
  <path
    d="M294.326 554.768L295.454 574.465L298.101 619.975H310.253L312.9 574.465L314.039 554.768H294.326Z"
    fill="#455A64" />
  <path d="M314.039 554.768H294.326L295.454 574.465H312.9L314.039 554.768Z" fill="#263238" />
  <path
    d="M162.417 554.768L163.556 574.465L166.204 619.975H178.344L180.992 574.465L182.131 554.768H162.417Z"
    fill="#C7C7C7" />
  <path d="M182.131 554.768H162.417L163.556 574.465H180.992L182.131 554.768Z" fill="#A6A6A6" />
  <path
    d="M77.498 554.768L78.6372 574.465L81.2845 619.975H93.4251L96.0724 574.465L97.2116 554.768H77.498Z"
    fill="#455A64" />
  <path d="M77.498 554.768L78.6372 574.465H96.0724L97.2116 554.768H77.498Z" fill="#A6A6A6" />
  <g opacity="0.2">
    <path
      d="M310.828 284.91C311.048 284.944 311.252 285.093 311.4 285.326C311.548 285.559 311.629 285.861 311.629 286.175C311.629 286.488 311.548 286.79 311.4 287.024C311.252 287.257 311.048 287.405 310.828 287.439C310.607 287.405 310.404 287.257 310.256 287.024C310.108 286.79 310.026 286.488 310.026 286.175C310.026 285.861 310.108 285.559 310.256 285.326C310.404 285.093 310.607 284.944 310.828 284.91Z"
      fill="black" />
    <path
      d="M309.298 439.728C309.518 439.762 309.722 439.91 309.87 440.144C310.018 440.377 310.1 440.679 310.1 440.992C310.1 441.306 310.018 441.608 309.87 441.841C309.722 442.075 309.518 442.223 309.298 442.257C309.077 442.223 308.874 442.075 308.726 441.841C308.578 441.608 308.496 441.306 308.496 440.992C308.496 440.679 308.578 440.377 308.726 440.144C308.874 439.91 309.077 439.762 309.298 439.728Z"
      fill="black" />
    <path
      d="M361.755 207.67C361.755 207.547 361.842 207.409 361.896 207.287C361.932 207.201 361.982 207.13 362.043 207.08C362.104 207.03 362.173 207.004 362.244 207.004C362.314 207.004 362.383 207.03 362.444 207.08C362.505 207.13 362.555 207.201 362.591 207.287C362.645 207.409 362.688 207.547 362.732 207.67C363.242 209.172 361.289 209.172 361.755 207.67Z"
      fill="black" />
    <path
      d="M347.347 442.993C347.384 442.861 347.428 442.733 347.477 442.609C347.513 442.524 347.563 442.452 347.624 442.403C347.685 442.353 347.754 442.327 347.825 442.327C347.895 442.327 347.964 442.353 348.025 442.403C348.086 442.452 348.136 442.524 348.172 442.609C348.229 442.729 348.277 442.858 348.313 442.993C348.823 444.418 346.837 444.418 347.347 442.993Z"
      fill="black" />
    <path
      d="M303.125 292.636C303.306 292.636 303.48 292.737 303.608 292.919C303.736 293.1 303.808 293.345 303.808 293.601C303.808 293.858 303.736 294.103 303.608 294.284C303.48 294.465 303.306 294.567 303.125 294.567C302.943 294.567 302.769 294.465 302.641 294.284C302.513 294.103 302.441 293.858 302.441 293.601C302.441 293.345 302.513 293.1 302.641 292.919C302.769 292.737 302.943 292.636 303.125 292.636Z"
      fill="black" />
    <path
      d="M184.583 479.015C184.803 479.049 185.007 479.197 185.155 479.43C185.303 479.664 185.385 479.966 185.385 480.279C185.385 480.593 185.303 480.895 185.155 481.128C185.007 481.362 184.803 481.51 184.583 481.544C184.362 481.51 184.159 481.362 184.011 481.128C183.863 480.895 183.781 480.593 183.781 480.279C183.781 479.966 183.863 479.664 184.011 479.43C184.159 479.197 184.362 479.049 184.583 479.015Z"
      fill="black" />
    <path
      d="M262.471 511.204C262.653 511.204 262.827 511.306 262.955 511.487C263.083 511.668 263.155 511.914 263.155 512.17C263.155 512.426 263.083 512.672 262.955 512.853C262.827 513.034 262.653 513.136 262.471 513.136C262.29 513.136 262.116 513.034 261.988 512.853C261.86 512.672 261.788 512.426 261.788 512.17C261.788 511.914 261.86 511.668 261.988 511.487C262.116 511.306 262.29 511.204 262.471 511.204Z"
      fill="black" />
    <path
      d="M360.649 390.753C360.83 390.753 361.004 390.855 361.132 391.036C361.26 391.217 361.332 391.463 361.332 391.719C361.332 391.975 361.26 392.221 361.132 392.402C361.004 392.583 360.83 392.685 360.649 392.685C360.468 392.685 360.294 392.583 360.166 392.402C360.037 392.221 359.965 391.975 359.965 391.719C359.965 391.463 360.037 391.217 360.166 391.036C360.294 390.855 360.468 390.753 360.649 390.753Z"
      fill="black" />
    <path
      d="M270.836 238.695C271.016 238.452 271.255 238.317 271.504 238.317C271.752 238.317 271.991 238.452 272.171 238.695C272.335 238.934 272.452 239.229 272.509 239.553C272.566 239.876 272.562 240.214 272.496 240.534C272.412 240.806 272.272 241.038 272.096 241.2C271.92 241.362 271.714 241.449 271.504 241.449C271.293 241.449 271.087 241.362 270.911 241.2C270.735 241.038 270.596 240.806 270.511 240.534C270.445 240.214 270.441 239.876 270.498 239.553C270.555 239.229 270.672 238.934 270.836 238.695Z"
      fill="black" />
    <path
      d="M301.79 432.569C301.969 432.318 302.211 432.178 302.463 432.178C302.715 432.178 302.957 432.318 303.135 432.569C303.298 432.806 303.414 433.1 303.471 433.42C303.528 433.74 303.524 434.076 303.461 434.393C303.377 434.67 303.238 434.906 303.061 435.071C302.883 435.237 302.675 435.325 302.463 435.325C302.25 435.325 302.042 435.237 301.864 435.071C301.687 434.906 301.548 434.67 301.465 434.393C301.399 434.076 301.394 433.739 301.451 433.419C301.509 433.098 301.626 432.805 301.79 432.569Z"
      fill="black" />
    <path
      d="M388.413 514.009C388.59 513.759 388.83 513.619 389.08 513.619C389.33 513.619 389.57 513.759 389.747 514.009C389.912 514.245 390.028 514.538 390.086 514.859C390.143 515.18 390.138 515.516 390.073 515.834C389.988 516.106 389.849 516.337 389.672 516.499C389.496 516.661 389.29 516.748 389.08 516.748C388.869 516.748 388.664 516.661 388.487 516.499C388.311 516.337 388.172 516.106 388.087 515.834C388.021 515.516 388.017 515.18 388.074 514.859C388.131 514.538 388.248 514.245 388.413 514.009Z"
      fill="black" />
    <path
      d="M145.123 216.913C144.903 216.879 144.699 216.731 144.551 216.497C144.403 216.264 144.321 215.962 144.321 215.649C144.321 215.335 144.403 215.033 144.551 214.8C144.699 214.566 144.903 214.418 145.123 214.384C145.344 214.418 145.547 214.566 145.695 214.8C145.843 215.033 145.925 215.335 145.925 215.649C145.925 215.962 145.843 216.264 145.695 216.497C145.547 216.731 145.344 216.879 145.123 216.913Z"
      fill="black" />
    <path
      d="M133.33 445.614C133.109 445.58 132.906 445.432 132.758 445.198C132.61 444.965 132.528 444.663 132.528 444.349C132.528 444.036 132.61 443.734 132.758 443.5C132.906 443.267 133.109 443.119 133.33 443.085C133.55 443.119 133.754 443.267 133.902 443.5C134.05 443.734 134.131 444.036 134.131 444.349C134.131 444.663 134.05 444.965 133.902 445.198C133.754 445.432 133.55 445.58 133.33 445.614Z"
      fill="black" />
    <path
      d="M177.856 276.694C177.636 276.66 177.432 276.512 177.284 276.278C177.136 276.045 177.054 275.743 177.054 275.43C177.054 275.116 177.136 274.814 177.284 274.581C177.432 274.347 177.636 274.199 177.856 274.165C178.077 274.199 178.28 274.347 178.428 274.581C178.576 274.814 178.658 275.116 178.658 275.43C178.658 275.743 178.576 276.045 178.428 276.278C178.28 276.512 178.077 276.66 177.856 276.694Z"
      fill="black" />
    <path
      d="M94.4559 433.673C94.4174 433.802 94.3702 433.925 94.3148 434.041C94.2795 434.127 94.2289 434.198 94.168 434.248C94.107 434.297 94.038 434.323 93.9677 434.323C93.8973 434.323 93.8283 434.297 93.7673 434.248C93.7064 434.198 93.6558 434.127 93.6205 434.041C93.6205 433.918 93.5228 433.796 93.4903 433.673C92.9803 432.171 94.9658 432.171 94.4559 433.673Z"
      fill="black" />
    <path
      d="M83.6715 325.776C83.6331 325.91 83.5859 326.038 83.5304 326.159C83.4951 326.245 83.4445 326.316 83.3835 326.366C83.3226 326.415 83.2535 326.442 83.1832 326.442C83.1129 326.442 83.0438 326.415 82.9829 326.366C82.922 326.316 82.8713 326.245 82.836 326.159C82.836 326.037 82.7384 325.899 82.7059 325.776C82.1959 324.274 84.1814 324.274 83.6715 325.776Z"
      fill="black" />
    <path
      d="M86.4924 501.348C86.4924 501.471 86.4056 501.593 86.3622 501.716C86.3269 501.802 86.2762 501.873 86.2153 501.923C86.1544 501.972 86.0853 501.999 86.015 501.999C85.9447 501.999 85.8756 501.972 85.8147 501.923C85.7538 501.873 85.7031 501.802 85.6678 501.716C85.6678 501.593 85.5702 501.471 85.5268 501.348C85.0168 499.846 87.0023 499.846 86.4924 501.348Z"
      fill="black" />
    <path
      d="M205.175 357.429C204.998 357.679 204.758 357.819 204.508 357.819C204.258 357.819 204.018 357.679 203.841 357.429C203.676 357.194 203.559 356.9 203.502 356.58C203.445 356.259 203.449 355.922 203.515 355.605C203.6 355.333 203.739 355.102 203.915 354.939C204.092 354.777 204.298 354.691 204.508 354.691C204.718 354.691 204.924 354.777 205.1 354.939C205.277 355.102 205.416 355.333 205.501 355.605C205.566 355.922 205.571 356.259 205.514 356.58C205.457 356.9 205.34 357.194 205.175 357.429Z"
      fill="black" />
    <path
      d="M75.0895 331.478C74.9098 331.721 74.6708 331.856 74.4222 331.856C74.1737 331.856 73.9347 331.721 73.755 331.478C73.5905 331.243 73.4736 330.949 73.4164 330.629C73.3592 330.308 73.3637 329.971 73.4295 329.654C73.5144 329.382 73.6534 329.151 73.8297 328.988C74.006 328.826 74.2118 328.74 74.4222 328.74C74.6326 328.74 74.8385 328.826 75.0148 328.988C75.191 329.151 75.3301 329.382 75.415 329.654C75.4796 329.971 75.4836 330.308 75.4264 330.628C75.3692 330.948 75.253 331.242 75.0895 331.478Z"
      fill="black" />
  </g>
  <path
    d="M36.8884 560.455C39.9479 562.969 134.057 590.775 138.114 588.629C139.666 587.816 143.322 568.702 147.293 545.402C148.15 540.375 149.007 535.178 149.864 529.89C155.441 495.554 160.801 458.95 160.801 458.95L97.8735 440.096L88.6731 511.557L86.6225 527.299C86.6225 527.299 47.2171 539.424 42.9424 542.459C38.6677 545.494 33.7962 557.956 36.8884 560.455Z"
    fill="#EB9481" />
  <path
    d="M145.731 554.293C142.378 573.392 139.427 587.923 138.136 588.629C134.078 590.775 39.9586 562.969 36.9099 560.439C33.8612 557.91 38.7326 545.433 42.9857 542.383C45.6329 540.528 61.636 535.193 73.5162 531.377C63.144 534.887 43.7885 544.82 83.8232 548.912C116.871 552.315 138.711 553.848 145.731 554.293Z"
    fill="#263238" />
  <path
    d="M121.797 628.467C125.203 629.801 221.222 622.796 224.759 619.27C226.115 617.937 222.415 563.475 221.406 558.232C217.999 540.467 201.801 487.031 201.801 487.031L137.561 491.461L163.947 578.42C163.947 578.42 128.035 604.325 124.444 608.801C120.853 613.277 118.379 627.103 121.797 628.467Z"
    fill="#EB9481" />
  <path
    d="M224.759 619.27C221.222 622.826 125.214 629.831 121.786 628.467C118.357 627.103 120.842 613.261 124.411 608.801C126.093 606.716 134.773 600.002 143.572 593.472C132.527 602.255 115.059 621.83 223.76 586.927C224.748 602.409 225.485 618.534 224.759 619.27Z"
    fill="#263238" />
  <path
    d="M270.75 360.219C251.611 390.339 187.317 366.55 183.465 378.613C180.08 389.175 223.956 558.937 223.956 558.937L153.748 569.667C153.748 569.667 93.1322 382.185 114.799 328.014C126.505 298.752 178.073 310.417 209.189 305.021C218.574 303.488 222.99 276.05 222.99 276.05H278.594C278.594 276.05 292.622 325.73 270.75 360.219Z"
    fill="#263238" />
  <path
    d="M134.317 311.061L193.284 374.812C212.813 374.229 255.723 383.81 270.739 360.142C292.622 325.715 278.594 275.943 278.594 275.943H222.99C222.99 275.943 218.574 303.289 209.19 304.899C187.349 308.654 155.463 304.04 134.317 311.061Z"
    fill="#37474F" />
  <path
    d="M151.058 547.364C153 546.506 171.205 543.639 175.22 543.026C183.259 541.8 208.56 538.428 213.193 538.428C213.222 538.428 213.249 538.444 213.27 538.473C213.29 538.501 213.302 538.54 213.302 538.581C213.302 538.622 213.29 538.661 213.27 538.689C213.249 538.718 213.222 538.734 213.193 538.734C209.211 539.915 193.067 542.566 189.053 543.149C181.002 544.329 153.358 548.115 151.08 547.747C151.058 547.727 151.04 547.7 151.026 547.668C151.013 547.636 151.005 547.6 151.003 547.563C151.001 547.526 151.005 547.489 151.014 547.455C151.024 547.42 151.039 547.389 151.058 547.364Z"
    fill="#37474F" />
  <path
    d="M174.949 368.527C179.462 365.354 213.692 366.918 238.245 363.683C246.252 362.61 254.269 360.204 260.378 352.8C265.708 346.02 269.51 337.177 271.314 327.37C273.668 315.506 273.43 303.151 273.017 291.011C272.92 288.022 272.779 285.033 272.648 282.044C272.648 281.875 272.855 281.845 272.865 282.044C274.731 303.795 276.12 328.029 266.15 346.945C261.7 355.202 255.382 361.056 248.248 363.53C233.438 369.033 177.726 367.669 175.795 369.799C173.451 372.329 209.428 527.161 210.166 530.104C210.307 530.656 209.613 531.039 209.45 530.488C205.902 518.577 171.021 371.286 174.949 368.527Z"
    fill="#37474F" />
  <path
    d="M112.282 333.088C115.537 321.208 123.131 313.82 134.252 310.984C134.436 310.984 134.426 311.337 134.252 311.398C124.563 315.414 117.631 320.917 113.822 332.475C112.043 337.87 111.121 345.458 110.654 355.62C108.354 406.312 139.666 521.398 140.306 523.406C140.319 523.442 140.321 523.485 140.312 523.524C140.303 523.562 140.283 523.595 140.257 523.613C140.231 523.631 140.201 523.634 140.174 523.621C140.146 523.608 140.124 523.58 140.111 523.544C135.695 513.059 98.6113 382.093 112.282 333.088Z"
    fill="#37474F" />
  <path
    d="M86.8938 507.004L140.056 522.977C140.056 522.977 98.1122 346.117 117.815 323.293C123.24 316.962 135.174 314.755 149.279 323.385C170.403 336.276 194.846 362.564 217.902 372.175C239.492 381.173 265.119 372.896 273.939 359.177C292.47 330.374 278.529 275.912 278.529 275.912L202.072 271.866C202.072 271.866 203.157 273.169 199.566 277.737C199.566 277.737 154.627 263.343 135.098 280.204C99.9241 310.601 86.8938 507.004 86.8938 507.004Z"
    fill="#263238" />
  <path
    d="M245.557 282.228C245.566 282.186 245.583 282.15 245.608 282.123C245.632 282.097 245.662 282.083 245.693 282.083C245.723 282.083 245.753 282.097 245.778 282.123C245.802 282.15 245.82 282.186 245.828 282.228C245.761 286.285 245.982 290.342 246.49 294.337C247.081 298.135 248.411 301.623 250.331 304.408C254.519 310.402 260.54 312.44 266.03 314.877C266.323 315.015 266.269 315.736 265.943 315.659C259.846 314.341 253.434 312.164 248.975 305.696C246.933 302.712 245.563 298.941 245.036 294.858C244.466 290.652 244.645 286.312 245.557 282.228Z"
    fill="#37474F" />
  <path
    d="M119.139 319.921C127.308 312.67 140.089 318.173 146.208 321.453C146.338 321.453 146.273 321.821 146.143 321.745C140.523 318.893 126.516 314.556 119.019 322.051C101.66 339.372 124.867 457.785 140.056 522.946C140.284 523.973 139.72 523.697 139.395 522.716C136.899 515.052 117.327 432.646 112.217 378.153C111.446 369.815 107.41 330.359 119.139 319.921Z"
    fill="#37474F" />
  <path
    d="M92.9587 487.031C94.5644 487.031 108.343 491.262 111.403 492.228C117.468 494.159 131.54 499.31 134.827 501.088C134.914 501.088 134.827 501.379 134.762 501.379C131.605 500.95 124.27 498.681 121.254 497.685C115.178 495.692 94.4017 488.641 92.8827 487.491C92.72 487.445 92.7959 487.031 92.9587 487.031Z"
    fill="#37474F" />
  <path
    d="M121.742 316.839C127.243 312.593 133.785 311.904 139.894 312.961C146.339 314.332 152.597 317.098 158.446 321.162C170.88 329.194 182.728 339.02 195.183 347.006C207.638 354.992 220.777 361.169 234.426 361.767C246.089 362.273 260.855 359.361 268.352 344.538C279.907 321.699 273.18 282.32 273.039 279.775C273.039 279.576 273.223 279.591 273.256 279.775C282.218 328.183 270.685 346.975 262.906 354.885C256.721 361.169 247.836 362.748 241.966 363.453C228.393 365.063 214.842 360.388 202.202 353.291C189.313 346.04 177.249 336.261 164.869 327.339C152.978 318.832 139.818 309.942 126.288 314.847C124.753 315.42 123.248 316.147 121.786 317.023C121.721 317.069 121.667 316.901 121.742 316.839Z"
    fill="#37474F" />
  <path
    d="M231.724 186.716C216.969 223.504 200.814 255.694 186.677 259.787C171.596 264.11 140.566 221.818 133.232 207.011C130.52 201.539 159.488 179.19 163.361 183.788C170.652 192.434 184.561 205.662 186.905 205.11C189.248 204.558 206.683 185.383 225.084 165.18C236.237 152.932 241.944 161.225 231.724 186.716Z"
    fill="#EB9481" />
  <path
    d="M136.628 213.434C136.628 213.434 122.22 186.471 119.692 179.711C117.164 172.951 108.343 144.088 112.759 140.087C118.639 134.753 128.729 167.755 129.901 169.38C131.073 171.004 153.51 174.821 158.891 179.251C162.251 182.074 165.254 185.67 167.777 189.889C167.777 189.889 152.154 211.058 136.628 213.434Z"
    fill="#EB9481" />
  <path d="M111.446 106.947L140.566 76.4891L159.423 151.936L130.455 177.427L111.446 106.947Z"
    fill="#37474F" />
  <path
    d="M115.081 106.701L139.839 81.2409L140.848 84L155.43 142.034C153.273 145.246 151.285 148.679 149.485 152.304C147.185 157.209 140.501 172.951 132.928 173.932L115.081 106.701Z"
    fill="white" />
  <path
    d="M116.166 111.3C116.166 111.3 122.73 106.701 126.071 101.643C129.413 96.5847 132.635 91.0818 135.326 88.6446C138.017 86.2073 140.751 83.6781 140.751 83.6781L139.861 81.2409L115.103 106.701L116.166 111.3Z"
    fill="#EBEBEB" />
  <path d="M172.269 180.018L127.623 179.512L111.446 106.947L158.121 102.118L172.269 180.018Z"
    fill="#455A64" />
  <path
    d="M123.153 130.185C120.723 133.25 124.238 171.372 124.411 173.104C124.585 174.836 127.666 182.516 127.666 182.516L139.145 177.473C139.145 177.473 133.916 163.677 133.72 159.523C133.525 155.369 130.552 120.988 123.153 130.185Z"
    fill="#EB9481" />
  <path
    d="M122.925 153.806C124.01 163.233 124.856 172.706 125.93 182.133C123.469 173.117 122.443 163.445 122.925 153.806Z"
    fill="#263238" />
  <path
    d="M138.288 135.872C144.342 132.806 141.847 152.074 140.599 159.094C139.199 166.973 141.684 183.865 141.684 183.865L129.001 184.601C129.001 184.601 129.001 166.207 129.467 160.443C129.847 156.258 135.001 137.512 138.288 135.872Z"
    fill="#EB9481" />
  <path
    d="M132.57 147.598C131.822 152.028 130.4 156.626 129.999 161.01C129.91 165.712 129.617 170.401 129.12 175.051C128.771 170.356 128.71 165.628 128.936 160.918C129.446 156.136 131.106 151.874 132.57 147.598Z"
    fill="#263238" />
  <path
    d="M139.655 183.037C139.655 183.037 141.825 168.644 142.91 166.513C143.995 164.383 149.506 150.449 151.481 150.434C153.455 150.418 155.821 157.102 154.66 161.807C152.88 168.843 151.709 172.844 151.6 174.974C151.492 177.105 156.775 185.704 156.775 185.704L139.655 183.037Z"
    fill="#EB9481" />
  <path
    d="M143.506 165.18C141.651 170.928 141.705 177.304 139.655 183.037C140.035 176.906 140.588 169.901 143.506 165.18Z"
    fill="#263238" />
  <path
    d="M151.6 174.974C153.499 178.699 155.615 182.179 156.775 186.593C154.925 184.281 153.416 181.473 152.338 178.331C151.908 177.31 151.656 176.16 151.6 174.974Z"
    fill="#263238" />
  <path
    d="M170.988 181.75L140.794 224.179C140.794 224.179 170.533 269.827 185.125 265.382C199.718 260.937 225.366 211.732 234.935 176.952C241.564 152.886 231.898 156.366 221.558 167.831C211.218 179.297 187.252 202.796 186.113 202.336C184.973 201.876 170.988 181.75 170.988 181.75Z"
    fill="#FF683B" />
  <path
    d="M223.771 208.115L223.619 208.467C220.012 209.167 216.348 209.037 212.77 208.084C206.02 205.908 199.733 201.5 194.423 195.223L194.738 194.932C199.969 201.145 206.161 205.535 212.813 207.747C216.431 208.656 220.127 208.78 223.771 208.115ZM168.167 185.75L167.462 186.762C169.404 186.299 171.325 185.67 173.212 184.877L172.724 184.187C171.226 184.822 169.705 185.343 168.167 185.75ZM220.766 168.751L220.169 169.395C222.889 170.449 225.542 171.823 228.1 173.503C230.341 174.926 232.486 176.629 234.512 178.592C234.588 178.331 234.664 178.055 234.729 177.795C230.452 173.703 225.722 170.647 220.733 168.751H220.766ZM194.119 258.791C194.137 258.797 194.156 258.797 194.174 258.791H194.087L193.512 258.99C186.004 261.519 178.323 262.163 170.587 258.208C169.143 257.548 167.723 256.786 166.334 255.924C167.126 256.675 167.929 257.457 168.721 258.101C171.151 259.312 173.642 260.26 176.174 260.937C181.871 262.269 187.704 261.845 193.273 259.695L193.968 259.45L194.521 259.25L194.119 258.791ZM194.119 258.791C187.859 252.169 181.925 244.734 175.99 238.22C170.565 232.502 164.424 226.172 157.329 226.616C153.205 226.946 149.16 228.344 145.394 230.739L145.741 231.23C148.539 229.548 151.472 228.359 154.475 227.689C162.504 225.497 169.589 232.288 175.686 238.864C181.545 245.225 187.414 252.475 193.588 258.99L193.816 259.22L194.044 259.45L194.597 259.25L194.119 258.791Z"
    fill="white" />
  <path opacity="0.1"
    d="M234.935 176.952L234.48 178.592C224.563 213.25 199.501 260.998 185.125 265.382C182.218 266.271 178.702 265.167 174.938 262.822C189.454 235.077 211.262 191.192 227.612 162.022C228.144 161.608 228.697 161.225 229.163 160.888L229.814 160.458L229.977 160.366C230.205 160.228 230.433 160.091 230.661 159.983C230.889 159.876 231.062 159.769 231.268 159.677C231.567 159.53 231.871 159.407 232.18 159.309C232.344 159.245 232.51 159.193 232.679 159.155C232.879 159.093 233.082 159.052 233.286 159.033C233.814 158.883 234.36 158.922 234.875 159.144C235.39 159.366 235.858 159.765 236.237 160.305C236.312 160.416 236.381 160.533 236.444 160.658C237.604 163.064 237.355 168.169 234.935 176.952Z"
    fill="black" />
  <path
    d="M150.103 231.889C154.443 226.034 171.726 201.232 175.198 195.499C175.437 195.101 175.317 194.779 175.024 195.147C161.658 212.207 154.063 225.589 149.951 231.629C149.843 231.782 149.995 232.027 150.103 231.889Z"
    fill="#263238" />
  <path
    d="M201.486 278.227L283.812 288.175C283.812 288.175 275.339 233.637 263.318 190.564C250.428 144.44 232.993 156.718 226.809 164.061C219.475 172.752 204.958 205.447 203.873 211.855C202.083 222.37 208.289 234.357 208.289 234.357L201.486 278.227Z"
    fill="#FF683B" />
  <path
    d="M233.514 234.526C230.111 234.323 226.702 234.482 223.316 235.001C221.634 235.277 219.974 235.675 218.303 236.12C217.479 236.35 216.654 236.534 215.819 236.702C214.949 236.927 214.064 236.999 213.182 236.917C213.172 236.911 213.161 236.908 213.151 236.91C213.14 236.911 213.13 236.916 213.12 236.924C213.111 236.933 213.104 236.944 213.099 236.957C213.094 236.971 213.091 236.986 213.091 237.001C213.091 237.016 213.094 237.031 213.099 237.045C213.104 237.058 213.111 237.07 213.12 237.078C213.13 237.086 213.14 237.092 213.151 237.093C213.161 237.094 213.172 237.092 213.182 237.085C214 237.295 214.826 237.428 215.656 237.484C216.468 237.494 217.28 237.428 218.086 237.285C219.79 237.024 221.482 236.641 223.185 236.35C226.636 235.752 230.064 235.169 233.536 234.924C233.677 234.893 233.677 234.526 233.514 234.526Z"
    fill="#263238" />
  <path
    d="M241.434 240.258C238.701 239.338 235.934 238.632 233.145 238.143C231.746 237.913 230.357 237.791 228.947 237.729C228.274 237.729 227.612 237.729 226.939 237.729C226.267 237.729 225.453 237.852 224.769 237.837C224.694 237.837 224.683 238.005 224.769 238.005C225.464 238.005 226.158 238.266 226.853 238.373L228.936 238.68C230.335 238.894 231.724 239.124 233.124 239.308C235.912 239.691 238.689 240.121 241.478 240.642C241.565 240.657 241.575 240.304 241.434 240.258Z"
    fill="#263238" />
  <path
    d="M264.218 193.813C260.773 194.346 257.363 195.264 254.02 196.557L253.184 196.879C247.423 199.101 241.705 202.045 236.064 204.543C228.588 207.701 220.625 210.337 212.813 208.13C210.493 207.426 208.224 206.425 206.032 205.141L206.173 204.773C208.331 206.077 210.568 207.103 212.857 207.839C226.104 211.349 239.329 202.152 252.718 196.649L253.531 196.312C256.971 194.89 260.487 193.865 264.045 193.246C264.099 193.384 264.153 193.599 264.218 193.813ZM266.388 202.045C263.573 201.521 260.816 200.491 258.186 198.979C256.769 198.25 255.378 197.422 254.02 196.496L253.531 196.158C241.966 188.08 236.823 175.971 222.925 169.609L222.502 170.33C224.394 171.213 226.252 172.236 228.068 173.396C235.304 177.918 240.979 185.842 247.456 192.112C249.135 193.731 250.894 195.18 252.718 196.45C252.868 196.572 253.024 196.68 253.184 196.772C256.535 199.065 260.063 200.798 263.697 201.937C264.652 202.244 265.618 202.474 266.573 202.658C266.507 202.535 266.442 202.336 266.388 202.045ZM259.878 257.733L259.629 257.457C253.754 250.411 246.697 245.613 239.134 243.523C231.268 241.715 223.381 244.765 215.992 248.306C212.444 250.038 208.875 251.969 205.284 253.793L205.208 254.253C216.502 248.337 227.666 241.439 239.091 243.861C246.543 245.966 253.495 250.713 259.293 257.656L259.531 257.932C266.855 266.393 273.071 277.261 279.212 287.531L279.972 287.623C273.679 277.353 267.332 266.301 259.868 257.733H259.878ZM276.337 246.497C270.463 249.142 264.849 252.824 259.629 257.457L259.293 257.733C248.649 266.593 238.31 276.71 226.462 277.246C217.88 277.246 210.242 273.245 203.168 267.405L203.081 267.957C210.198 273.736 217.869 277.645 226.462 277.599C234.425 277.369 241.803 272.372 248.627 267.007C252.251 264.125 255.864 260.983 259.531 258.009L259.878 257.733C265.085 253.275 270.655 249.729 276.467 247.172L276.337 246.497Z"
    fill="white" />
  <path
    d="M254.443 168.015C279.516 201.999 311.197 268.049 305.761 283.163C299.707 300.024 265.195 254.039 265.271 251.142C265.325 248.98 252.544 209.402 242.855 177.289C233.167 145.176 248.248 159.6 254.443 168.015Z"
    fill="#EB9481" />
  <path
    d="M265.043 251.203C263.958 246.482 246.544 192.832 241.532 174.407C236.519 155.983 240.718 150.035 254.334 166.575C267.95 183.114 297.385 231.552 304.611 261.611C311.576 290.475 301.682 293.678 287.414 280.802C275.74 270.18 265.043 251.203 265.043 251.203Z"
    fill="#FF683B" />
  <path
    d="M273.006 193.828C266.638 192.786 260.302 194.212 254.02 196.557L253.184 196.879C251.709 197.446 250.233 198.059 248.769 198.718C248.724 198.593 248.684 198.466 248.649 198.335C250.005 197.707 251.362 197.109 252.718 196.557L253.531 196.22C259.824 193.721 266.16 192.096 272.551 193.154L273.006 193.828ZM277.758 201.799C271.191 203.363 264.447 202.41 258.229 199.04C256.812 198.312 255.422 197.483 254.063 196.557L253.575 196.22C250.95 194.361 248.439 192.197 246.067 189.751C246.208 190.242 246.36 190.732 246.512 191.284L247.499 192.265C249.179 193.884 250.937 195.334 252.761 196.603C252.911 196.725 253.067 196.833 253.228 196.925C256.578 199.218 260.106 200.951 263.741 202.091C268.481 203.496 273.368 203.611 278.138 202.428L277.758 201.799ZM300.174 247.463C295.645 245.503 290.936 244.501 286.199 244.489C278.919 244.489 272.258 247.907 265.835 252.567L266.084 252.996C274.146 247.325 282.597 243.539 292.036 245.746C294.939 246.296 297.798 247.235 300.575 248.551L300.174 247.463Z"
    fill="white" />
  <path
    d="M267.267 258.745C265.791 253.211 264.251 247.708 262.71 242.22C261.17 236.733 259.564 231.276 258.001 225.804L253.152 209.448L250.689 201.293C249.843 198.596 249.018 195.883 248.161 193.185C248.888 195.959 249.658 198.703 250.407 201.462L252.718 209.693L257.426 226.126C259.043 231.583 260.681 237.039 262.276 242.481C263.871 247.923 265.553 253.349 267.267 258.745Z"
    fill="#263238" />
  <path
    d="M251.709 205.953C251.205 204.569 250.632 203.237 249.995 201.968C249.68 201.339 249.354 200.711 249.018 200.098C248.682 199.485 248.335 198.887 247.987 198.274C248.415 199.713 248.962 201.077 249.615 202.336C250.24 203.622 250.941 204.832 251.709 205.953Z"
    fill="#263238" />
  <path
    d="M305.522 284.466C298.85 294.889 284.908 295.104 245.525 298.92C240.1 299.457 225.995 245.102 231.8 244.106C239.091 242.864 267.603 240.274 269.697 240.458C287.425 241.991 310.036 277.445 305.522 284.466Z"
    fill="#EB9481" />
  <path
    d="M245.004 245.424C245.004 245.424 230.346 241.623 220.668 239.783C215.244 238.756 205.913 238.158 201.703 239.967C195.411 242.665 170.305 259.649 173.093 268.34C175.61 276.204 195.877 257.748 195.877 257.748C195.877 257.748 174.276 273.812 178.518 282.504C182.76 291.195 203.711 266.026 203.711 266.026C203.711 266.026 181.784 283.239 187.176 291.241C191.266 297.265 211.121 275.989 211.121 275.989C211.121 275.989 192.34 290.98 196.344 297.449C200.781 304.577 219.985 286.566 219.985 286.566C232.18 300.438 241.944 300.116 248.92 298.675C250.624 298.323 245.004 245.424 245.004 245.424Z"
    fill="#EB9481" />
  <path
    d="M203.092 251.51C200.499 253.272 197.873 255.02 195.411 257.104C192.948 259.189 190.517 261.381 188.206 263.772C185.127 266.803 182.309 270.332 179.809 274.288C184.615 267.742 193.371 260.109 195.834 258.039C198.297 255.97 200.683 253.717 203.146 251.632C203.211 251.586 203.146 251.464 203.092 251.51Z"
    fill="#263238" />
  <path
    d="M208.56 263.956C205.305 266.409 202.051 268.662 198.893 271.314C195.736 273.966 192.926 276.847 189.921 279.775C189.693 280.005 189.856 280.112 190.094 279.898C193.176 277.123 196.181 274.916 199.295 272.234C202.409 269.551 205.436 266.639 208.604 264.094C208.658 264.018 208.604 263.926 208.56 263.956Z"
    fill="#263238" />
  <path
    d="M214.614 273.445C209.591 277.033 204.843 281.343 200.445 286.305C200.217 286.535 200.445 286.627 200.673 286.412C205.327 282.013 208.962 278.518 214.701 273.705C214.82 273.628 214.723 273.383 214.614 273.445Z"
    fill="#263238" />
  <path
    d="M236.302 242.404L265.249 301.281C265.249 301.281 299.837 296.023 305.945 284.588C309.96 277.062 287.675 239.906 267.972 240.304L236.302 242.404Z"
    fill="#FF683B" />
  <path
    d="M285.516 296.545L284.887 296.744L283.802 295.119C276.077 282.856 268.612 268.57 259.51 258.009L259.271 257.733C253.473 250.79 246.522 246.043 239.069 243.937C238.32 243.784 237.583 243.661 236.834 243.585L236.639 243.186C237.463 243.278 238.288 243.416 239.113 243.6C246.678 245.683 253.739 250.476 259.618 257.518L259.868 257.794C269.014 268.294 276.5 282.534 284.236 294.583L285.516 296.545ZM281.339 244.98C273.625 246.512 266.551 251.709 259.64 257.457L259.303 257.733C255.636 260.799 252.023 263.972 248.356 266.93L248.476 267.191L248.638 267.068C252.262 264.186 255.875 261.044 259.542 258.07L259.889 257.794C266.963 252.077 274.254 247.064 282.153 245.531C281.87 245.332 281.61 245.148 281.339 244.98Z"
    fill="white" />
  <path
    d="M290.301 252.996C287.469 249.256 279.342 240.258 267.972 240.258C267.875 240.258 267.853 240.488 267.972 240.504C276.446 241.653 287.284 249.915 290.235 253.18C290.29 253.272 290.376 253.104 290.301 252.996Z"
    fill="#263238" />
  <path
    d="M275.23 294.046C272.29 287.332 269.111 280.848 265.911 274.364C262.71 267.88 259.51 261.396 256.146 255.035C254.269 251.433 252.414 247.831 250.45 244.305C250.396 244.213 250.277 244.305 250.32 244.412C253.249 251.126 256.428 257.641 259.596 264.125C262.764 270.609 265.987 277.108 269.252 283.531C271.097 287.148 272.985 290.735 274.948 294.261C275.089 294.429 275.317 294.307 275.23 294.046Z"
    fill="#263238" />
  <path
    d="M236.302 241.699C238.455 241.189 240.63 240.887 242.812 240.795C244.982 240.596 247.152 240.473 249.322 240.366C253.662 240.151 262.797 239.002 270.63 240.366C270.717 240.366 270.218 240.902 270.131 240.872C266.432 239.921 239.037 242.711 236.823 242.542C236.902 242.757 236.964 242.983 237.008 243.217C237.008 243.37 236.91 243.554 236.802 243.416C236.693 243.278 236.389 242.757 236.151 242.42C236.116 242.363 236.091 242.295 236.08 242.222C236.069 242.149 236.071 242.072 236.086 242C236.101 241.928 236.129 241.863 236.167 241.811C236.205 241.758 236.251 241.72 236.302 241.699Z"
    fill="#263238" />
  <path
    d="M300.532 290.812C299.126 291.635 297.675 292.292 296.192 292.774C294.738 293.31 293.273 293.74 291.798 294.184C288.858 295.027 285.906 295.809 282.955 296.56C277.042 298.093 271.108 299.488 265.184 301.158H265.314L262.96 297.265L265.13 301.404V301.48H265.216C268.222 301.22 271.227 300.76 274.222 300.223C277.216 299.687 280.189 299.012 283.162 298.231C286.134 297.449 289.085 296.56 292.004 295.441C293.469 294.889 294.922 294.261 296.344 293.54C297.81 292.864 299.216 291.949 300.532 290.812Z"
    fill="#263238" />
  <path
    d="M244.461 163.8C244.125 165.869 237.268 179.266 230.628 178.899C228.458 178.776 228.458 162.037 228.458 162.037L228.252 160.796L225.42 143.536L239.72 130.353L241.792 128.606C241.792 128.606 242.346 133.404 242.997 139.336C242.997 139.612 243.051 139.888 243.083 140.179C243.116 140.47 243.17 140.838 243.203 141.145C243.311 142.049 243.409 142.953 243.507 143.858C243.604 144.762 243.648 145.222 243.702 145.958C243.756 146.693 243.821 147.399 243.897 148.134C244.339 153.332 244.528 158.566 244.461 163.8Z"
    fill="#EB9481" />
  <path
    d="M242.953 139.489C241.748 144.366 239.804 148.812 237.258 152.519C234.711 156.225 231.623 159.102 228.209 160.949L225.377 143.689L239.677 130.507L241.749 128.759C241.749 128.759 242.302 133.434 242.953 139.489Z"
    fill="#263238" />
  <path
    d="M224.65 164.628C224.65 164.628 218.596 188.862 225.258 192.97C231.919 197.078 251.709 163.524 251.709 163.524C251.709 163.524 240.696 146.034 224.65 164.628Z"
    fill="#EB9481" />
  <path
    d="M246.024 135.182C246.376 136.06 246.597 137.03 246.675 138.033C247.011 142.631 245.015 146.602 242.812 149.575C240.61 152.549 237.387 155.4 235.879 159.6C235.219 161.217 234.999 163.12 235.261 164.95C235.489 165.905 235.858 166.781 236.344 167.518C236.831 168.256 237.423 168.838 238.082 169.226C239.416 170.207 241.152 170.958 241.868 173.012C242.109 173.884 242.202 174.823 242.14 175.755C242.078 176.687 241.862 177.585 241.51 178.377C239.905 182.531 236.194 183.865 233.699 186.655C231.017 189.651 229.039 193.723 228.024 198.335C227.338 201.556 227.146 204.946 227.462 208.28C227.778 211.613 228.595 214.813 229.858 217.664C230.791 219.718 232.028 221.466 233.037 223.458C233.555 224.354 233.939 225.389 234.165 226.502C234.391 227.614 234.454 228.779 234.35 229.927C234.057 231.72 230.682 236.549 224.856 237.714C224.433 237.806 224.574 238.864 225.008 238.986C225.858 239.264 226.721 239.458 227.59 239.569C231.168 240.062 234.776 239.346 238.119 237.481C241.462 235.615 244.443 232.653 246.816 228.839C249.34 224.712 251.113 219.776 251.98 214.461C252.342 211.467 252.887 208.523 253.607 205.662C254.367 203.213 255.536 201.062 257.014 199.393C259.781 196.097 263.079 193.783 265.455 189.812C267.541 186.222 268.961 181.956 269.589 177.396C270.23 172.711 270.149 167.886 269.351 163.249C268.554 158.612 267.058 154.273 264.967 150.526C260.866 143.107 245.85 134.676 246.024 135.182Z"
    fill="#263238" />
  <path
    d="M246.132 135.458C246.709 137.272 246.984 139.249 246.935 141.236C246.815 143.038 246.375 144.768 245.655 146.264C244.092 149.636 241.706 151.813 239.395 154.066C237.084 156.32 235.055 158.573 234.057 162.191C233.621 163.733 233.505 165.418 233.72 167.05C234.025 168.798 234.804 170.307 235.89 171.25C237.865 173.104 240.762 174.545 241.065 178.393C241.369 182.24 238.82 184.877 236.997 186.885C232.549 191.805 226.256 197.247 226.419 206.367C226.695 211.088 227.771 215.646 229.554 219.657C230.715 222.508 232.19 226.095 231.29 229.452C231.29 229.574 231.127 229.452 231.16 229.36C232.082 225.788 230.151 222.554 228.881 219.703C227.333 216.35 226.254 212.609 225.702 208.682C225.235 204.743 225.882 200.702 227.503 197.431C229.201 194.12 231.289 191.247 233.677 188.939C234.859 187.697 236.075 186.471 237.236 185.183C238.342 184.078 239.264 182.644 239.937 180.983C240.243 180.134 240.346 179.169 240.233 178.23C240.12 177.291 239.795 176.429 239.308 175.772C238.271 174.483 237.123 173.386 235.89 172.507C234.819 171.648 233.943 170.377 233.362 168.843C232.951 167.551 232.787 166.129 232.885 164.72C233.129 161.517 234.217 158.562 235.934 156.442C238.277 153.377 241.272 151.461 243.528 148.334C244.835 146.847 245.756 144.791 246.149 142.487C246.542 140.182 246.383 137.759 245.698 135.596C245.692 135.555 245.691 135.514 245.696 135.473C245.701 135.432 245.712 135.394 245.727 135.359C245.759 135.288 245.809 135.238 245.866 135.22C245.924 135.202 245.984 135.217 246.034 135.261C246.084 135.306 246.119 135.376 246.132 135.458Z"
    fill="#263238" />
  <path
    d="M267.918 151.415C272.258 158.956 272.789 169.548 270.272 178.362C268.844 183.257 266.613 187.601 263.763 191.039C261.115 194.288 258.099 197.17 255.983 201.109C253.64 205.555 253.445 211.012 252.729 216.254C252.121 220.482 250.878 224.475 249.083 227.965C245.554 234.784 240.256 239.348 234.349 240.657C233.609 240.813 232.863 240.915 232.114 240.964C232.017 240.964 232.017 240.764 232.114 240.764C235.061 240.43 237.928 239.249 240.54 237.293C243.152 235.337 245.454 232.648 247.304 229.391C249.154 226.244 250.525 222.591 251.329 218.661C252.305 213.817 252.262 208.62 253.705 203.93C255.05 199.561 257.698 196.388 260.28 193.476C263.112 190.303 265.878 187.145 267.874 182.746C269.729 178.741 270.806 174.118 270.997 169.34C271.187 164.561 270.484 159.796 268.959 155.523C265.314 145.958 258.023 141.313 251.036 138.217L248.226 136.991C248.118 136.991 248.15 136.715 248.226 136.761C255.332 139.366 263.057 142.877 267.918 151.415Z"
    fill="#263238" />
  <path
    d="M246.707 129.587C247.278 129.622 247.832 129.868 248.314 130.301C248.795 130.735 249.188 131.339 249.452 132.055C249.604 133.143 246.837 140.746 245.384 141.252C243.93 141.758 242.834 138.186 242.834 138.186L246.707 129.587Z"
    fill="#FF683B" />
  <path
    d="M207.812 116.129C205.11 146.985 217.891 152.748 222.599 153.561C226.874 154.296 241.499 156.059 246.468 125.755C251.437 95.4504 242.129 83.9387 232.364 81.5168C222.599 79.0949 210.481 85.2723 207.812 116.129Z"
    fill="#EB9481" />
  <path
    d="M210.481 112.833C210.994 112.759 211.505 112.647 212.01 112.496C212.555 112.486 213.081 112.222 213.508 111.745C213.624 111.559 213.692 111.323 213.702 111.076C213.712 110.828 213.663 110.583 213.562 110.38C213.323 110.019 213.02 109.755 212.684 109.614C212.348 109.474 211.992 109.464 211.652 109.583C210.938 109.677 210.273 110.141 209.786 110.886C209.684 111.065 209.62 111.282 209.603 111.511C209.585 111.74 209.615 111.971 209.688 112.176C209.762 112.382 209.875 112.553 210.016 112.67C210.156 112.786 210.318 112.843 210.481 112.833Z"
    fill="#263238" />
  <path
    d="M225.67 113.431C225.167 113.299 224.67 113.12 224.184 112.894C223.637 112.808 223.126 112.468 222.73 111.929C222.625 111.732 222.568 111.492 222.568 111.246C222.568 111 222.625 110.761 222.73 110.564C222.995 110.239 223.316 110.018 223.662 109.927C224.007 109.835 224.363 109.875 224.694 110.043C225.398 110.224 226.029 110.771 226.462 111.576C226.552 111.765 226.601 111.986 226.605 112.213C226.609 112.441 226.567 112.665 226.484 112.859C226.401 113.054 226.28 113.211 226.136 113.312C225.992 113.414 225.83 113.455 225.67 113.431Z"
    fill="#263238" />
  <path
    d="M221.84 120.926C221.84 120.926 221.959 121.034 221.949 121.126C221.797 123.256 221.883 125.724 223.218 126.582C223.218 126.582 223.218 126.72 223.218 126.705C221.547 126.199 221.46 122.919 221.84 120.926Z"
    fill="#263238" />
  <path
    d="M223.305 118.811C225.757 118.811 225.616 125.709 223.305 125.739C220.994 125.77 221.254 118.842 223.305 118.811Z"
    fill="#263238" />
  <path
    d="M224.26 119.225C224.683 119.639 225.084 120.344 225.594 120.436C226.104 120.528 226.679 119.838 227.059 119.148C227.059 119.148 227.146 119.148 227.146 119.24C227.146 120.558 226.744 121.907 225.735 122.061C224.726 122.214 224.173 121.003 223.967 119.669C223.934 119.424 224.086 119.056 224.26 119.225Z"
    fill="#263238" />
  <path
    d="M213.486 120.466C213.486 120.466 213.367 120.558 213.367 120.65C213.367 122.796 213.117 125.249 211.728 125.908C211.728 125.908 211.728 126.046 211.728 126.031C213.421 125.77 213.735 122.505 213.486 120.466Z"
    fill="#263238" />
  <path
    d="M212.173 118.167C209.743 117.815 209.406 124.712 211.663 125.05C213.92 125.387 214.213 118.474 212.173 118.167Z"
    fill="#263238" />
  <path
    d="M211.132 118.535C210.73 118.857 210.318 119.485 209.851 119.485C209.385 119.485 208.951 118.688 208.647 117.953H208.571C208.484 119.271 208.723 120.681 209.602 121.018C210.481 121.355 211.067 120.252 211.359 118.964C211.414 118.78 211.294 118.397 211.132 118.535Z"
    fill="#263238" />
  <path
    d="M215.905 130.583C215.726 132.142 215.603 133.713 215.536 135.289C215.536 135.427 215.786 135.504 216.155 135.534C217.069 135.789 218.015 135.684 218.89 135.229C219.764 134.775 220.533 133.99 221.113 132.959C221.129 132.93 221.136 132.893 221.135 132.856C221.133 132.819 221.121 132.785 221.103 132.759C221.085 132.733 221.06 132.717 221.034 132.714C221.008 132.712 220.982 132.722 220.961 132.745C219.583 134.033 217.946 134.657 216.296 134.523C216.231 134.093 217.023 129.081 216.86 129.05C216.028 129.143 215.208 129.385 214.419 129.771C215.016 123.088 216.361 116.588 216.882 109.92C216.881 109.874 216.87 109.829 216.85 109.792C216.829 109.755 216.801 109.729 216.769 109.716C216.738 109.704 216.704 109.707 216.673 109.725C216.642 109.742 216.617 109.773 216.6 109.813C214.853 116.481 214.05 124.161 213.345 131.043C213.204 131.917 215.417 130.828 215.905 130.583Z"
    fill="#263238" />
  <path
    d="M216.263 134.891C216.829 136.177 217.622 137.233 218.564 137.956C219.08 138.321 219.665 138.444 220.234 138.309C221.482 138.018 221.612 136.439 221.471 135.059C221.394 134.323 221.255 133.603 221.059 132.913C219.65 134.276 217.97 134.969 216.263 134.891Z"
    fill="#263238" />
  <path
    d="M218.563 137.834C219.08 138.198 219.665 138.322 220.234 138.186C221.482 137.895 221.612 136.316 221.471 134.937C220.827 134.888 220.189 135.148 219.662 135.673C219.135 136.199 218.748 136.96 218.563 137.834Z"
    fill="#FF9BBC" />
  <path
    d="M244.863 125.448C240.794 126.307 239.536 113.185 239.536 113.185C239.536 113.185 222.111 109.583 220.321 89.6715C218.266 97.8708 214.049 104.631 208.549 108.541C208.549 108.541 208.799 86.6365 221.015 81.992C221.015 81.992 236.129 73.6533 244.982 90.4686C253.835 107.284 247.586 124.866 244.863 125.448Z"
    fill="#263238" />
  <path
    d="M220.245 88.1694C220.091 91.2575 220.406 94.3565 221.167 97.2592C221.9 100.216 223.06 102.926 224.574 105.215C224.949 105.76 225.348 106.272 225.768 106.747L226.386 107.545L227.059 108.219C227.514 108.648 227.959 109.123 228.426 109.522C228.892 109.92 229.402 110.242 229.901 110.58C230.14 110.748 230.389 110.932 230.639 111.085L231.409 111.484L232.95 112.266C234.035 112.634 235.066 112.94 236.129 113.216C235.12 112.634 234.089 112.204 233.113 111.683L231.659 110.733L230.932 110.273C230.693 110.089 230.476 109.89 230.248 109.691C229.793 109.307 229.348 108.924 228.881 108.556C228.415 108.188 228.046 107.667 227.623 107.223L226.994 106.564L226.419 105.812C226.039 105.327 225.677 104.815 225.334 104.28C223.9 102.106 222.741 99.6019 221.905 96.8759C221.466 95.5079 221.103 94.0934 220.82 92.6453C220.54 91.1786 220.348 89.6814 220.245 88.1694Z"
    fill="#263238" />
  <path
    d="M224.108 134.385C222.157 133.783 220.455 132.111 219.377 129.736C218.298 127.362 217.932 124.48 218.357 121.723C218.659 119.777 219.341 117.99 220.326 116.565C221.311 115.139 222.56 114.134 223.93 113.662C225.3 113.19 226.736 113.271 228.075 113.896C229.414 114.521 230.602 115.665 231.503 117.197C232.404 118.729 232.983 120.587 233.174 122.561C233.364 124.535 233.158 126.545 232.58 128.362C232.001 130.178 231.073 131.729 229.902 132.837C228.73 133.946 227.361 134.567 225.952 134.63C225.332 134.66 224.712 134.578 224.108 134.385ZM219.345 122.03C219.073 123.806 219.179 125.656 219.651 127.347C220.123 129.037 220.938 130.493 221.995 131.529C223.051 132.565 224.301 133.136 225.587 133.17C226.873 133.203 228.138 132.698 229.22 131.717C230.303 130.736 231.156 129.324 231.672 127.659C232.187 125.994 232.342 124.151 232.116 122.362C231.891 120.573 231.295 118.918 230.405 117.607C229.514 116.296 228.369 115.387 227.113 114.994C226.582 114.83 226.039 114.763 225.496 114.795C224.047 114.861 222.655 115.608 221.54 116.919C220.426 118.229 219.653 120.028 219.345 122.03Z"
    fill="#455A64" />
  <path
    d="M208.311 132.453C205.229 132.085 203.005 127.042 203.352 121.202C203.474 118.552 204.18 116.022 205.37 113.967C205.845 113.044 206.481 112.31 207.215 111.835C207.95 111.36 208.759 111.161 209.563 111.256C210.368 111.352 211.142 111.739 211.81 112.38C212.478 113.022 213.018 113.896 213.377 114.918C214.321 117.238 214.72 119.921 214.517 122.582C214.191 128.1 211.685 132.392 208.799 132.53C208.635 132.52 208.472 132.494 208.311 132.453ZM206.141 114.964C205.093 116.788 204.471 119.026 204.361 121.371C204.069 126.445 205.88 130.798 208.398 131.104C210.915 131.411 213.226 127.518 213.529 122.459C213.7 120.117 213.347 117.759 212.52 115.715C212.22 114.911 211.788 114.22 211.259 113.703C210.73 113.185 210.121 112.855 209.482 112.741C209.356 112.725 209.229 112.725 209.103 112.741C208.527 112.799 207.966 113.027 207.456 113.41C206.945 113.793 206.498 114.322 206.141 114.964Z"
    fill="#455A64" />
  <path
    d="M218.542 122.98L219.247 121.969C218.162 120.436 215.667 118.366 213.67 120.911L214.343 121.969C216.133 119.669 218.444 122.842 218.542 122.98Z"
    fill="#455A64" />
  <path
    d="M250.125 129.556L251.058 129.004C250.873 128.391 249.235 122.996 247.022 122.229C244.808 121.463 233.091 121.8 232.516 121.815V123.226C236.4 123.226 245.177 123.042 246.772 123.609C248.367 124.176 249.691 128.069 250.125 129.556Z"
    fill="#455A64" />
  <path
    d="M241.25 125.939C241.25 125.939 246.295 116.496 249.344 119.072C252.392 121.647 248.432 135.519 244.722 137.251C244.258 137.521 243.76 137.656 243.258 137.647C242.756 137.638 242.261 137.486 241.801 137.199C241.342 136.913 240.929 136.498 240.586 135.98C240.243 135.462 239.978 134.852 239.807 134.185L241.25 125.939Z"
    fill="#EB9481" />
  <path
    d="M248.139 123.011C248.193 123.011 248.204 123.118 248.139 123.149C245.546 124.483 244.103 127.747 243.073 131.196C243.232 130.843 243.444 130.543 243.693 130.316C243.942 130.089 244.223 129.94 244.517 129.881C244.81 129.821 245.109 129.851 245.394 129.97C245.678 130.089 245.941 130.293 246.165 130.568C246.23 130.568 246.165 130.783 246.089 130.767C245.643 130.535 245.158 130.507 244.7 130.686C244.243 130.864 243.837 131.241 243.539 131.764C243.045 132.634 242.616 133.574 242.259 134.569C242.129 134.891 241.727 134.691 241.825 134.323C241.944 129.618 244.613 123.287 248.139 123.011Z"
    fill="#263238" />
  <path d="M42.0201 161.056H36.259V612.372H42.0201V161.056Z" fill="#263238" />
  <path d="M137.294 17.4382L0.483887 210.728L4.55759 216.483L141.368 23.1937L137.294 17.4382Z"
    fill="#263238" />
  <path d="M7.93103 612.357V620.496H70.3483V612.357H7.93103Z" fill="#263238" />
  <path d="M141.955 47.411L161.245 21.8124L143.083 0.965698L128.632 20.1569L141.955 47.411Z"
    fill="#FF683B" />
  <path opacity="0.1"
    d="M161.246 21.7971L141.955 47.4109L136.661 36.5737L153.195 12.5693L161.246 21.7971Z"
    fill="black" />
  <path d="M139.826 89.0467L191.904 19.9153L167.026 1L128 52.7949L139.826 89.0467Z" fill="#FF683B" />
  <path
    d="M403.732 484.088C402.467 490.608 401.632 497.278 401.237 504.015C401.356 504.337 401.334 505.548 401.237 505.241C401.237 506.345 400.022 506.146 400.022 505.058C400.022 504.352 400.022 503.647 400.022 502.958C397.255 498.114 393.241 495.048 389.997 490.833C387.393 487.517 385.492 483.245 384.507 478.493C381.816 465.388 384.344 451.515 381.111 438.44C378.323 427.174 373.31 417.394 369.079 407.185C364.609 396.455 361.311 385.051 360.985 372.405C360.725 362.717 361.538 349.826 366.757 342.576C372.29 334.912 379.147 340.644 383.378 347.512C395.66 367.439 401.345 392.577 403.645 418.314C404.904 432.554 406.228 446.871 405.924 461.233C405.731 468.936 404.997 476.591 403.732 484.088Z"
    fill="#FF683B" />
  <path
    d="M401.28 509.304C401.955 495.865 401.843 482.371 400.944 468.959C400.944 468.959 400.998 468.882 400.998 468.806C401.15 457.907 401.768 447.055 401.465 436.125C401.085 424.318 399.944 412.584 398.058 401.069C398.052 401.049 398.043 401.032 398.03 401.02C398.017 401.008 398.003 401.002 397.987 401.002C397.972 401.002 397.957 401.008 397.945 401.02C397.932 401.032 397.922 401.049 397.917 401.069C399.416 412.378 400.312 423.83 400.597 435.328C400.756 441.46 400.72 447.622 400.488 453.815C400.423 455.807 400.282 457.831 400.195 459.854C396.986 429.244 389.153 399.969 377.227 374.015C377.064 373.662 376.619 374.015 376.782 374.398C385.292 394.134 391.597 415.606 395.476 438.057C389.563 422.606 380.644 409.883 374.026 395.03C374.026 394.953 373.896 395.03 373.929 395.122C379.874 411.661 389.693 424.69 395.953 440.985C397.038 447.622 397.928 454.336 398.59 461.08C399.475 470.328 399.95 479.646 400.011 488.978C396.42 479.474 392.687 470.385 389.747 460.344C389.66 460.084 389.389 460.344 389.454 460.528C391.96 470.967 395.324 482.203 400.032 491.185C400.032 497.777 399.924 504.398 399.642 510.99C398.915 528.602 396.778 545.985 395.801 563.536C395.793 563.641 395.814 563.748 395.861 563.831C395.908 563.914 395.976 563.968 396.051 563.98C396.126 563.992 396.201 563.962 396.26 563.896C396.319 563.83 396.357 563.733 396.365 563.628C398.877 545.699 400.519 527.549 401.28 509.304Z"
    fill="#263238" />
  <path
    d="M388.044 373.478C388.044 373.355 387.881 373.478 387.913 373.57C390.192 382.46 391.472 391.474 393.121 400.594C393.138 400.672 393.175 400.738 393.224 400.781C393.273 400.823 393.331 400.84 393.387 400.827C393.444 400.814 393.496 400.772 393.533 400.71C393.569 400.647 393.589 400.568 393.588 400.487C392.915 391.228 390.582 382.001 388.044 373.478Z"
    fill="#263238" />
  <path
    d="M445.915 410.803C444.401 416.022 442.654 421.101 440.686 426.009C436.585 436.524 432.31 446.166 431.529 458.413C431.192 463.885 431.062 469.373 429.88 474.646C428.807 479.179 427.264 483.461 425.301 487.353C420.864 496.55 415.309 504.383 411.197 513.872C406.914 523.765 403.751 534.543 401.823 545.816C401.714 546.429 401.031 546.276 401.139 545.663C401.139 545.663 401.139 545.571 401.139 545.509C401.139 545.448 401.139 545.509 401.139 545.387C400.488 519.129 401.975 492.657 407.649 467.488C410.143 456.415 413.141 445.581 416.621 435.053C419.659 425.855 423.446 417.149 428.773 410.343C432.234 405.928 439.742 397.59 444.667 402.004C447 404.135 446.794 407.477 445.915 410.803Z"
    fill="#FF683B" />
  <path
    d="M427.178 470.293C423.889 477.922 420.266 485.253 416.328 492.243C414.527 495.554 412.705 498.85 410.904 502.176C410.057 503.709 409.103 505.242 408.321 506.989C408.82 504.23 409.298 501.471 409.797 498.712C412.195 485.437 414.495 472.055 418.064 459.302C421.724 446.939 426.04 434.985 430.975 423.541C431.105 423.234 430.758 423.02 430.628 423.311C426.7 432.508 422.708 441.552 419.41 451.178C417.586 456.55 415.996 462.073 414.647 467.718C416.163 455.743 418.28 443.936 420.983 432.385C420.983 432.278 420.907 432.201 420.874 432.309C417.323 444.005 415.104 456.421 414.299 469.097C413.497 472.515 412.759 475.949 412.064 479.428C409.135 494.113 406.564 508.966 404.177 523.881C404.14 514.115 404.743 504.366 405.978 494.757C405.97 494.719 405.953 494.686 405.931 494.662C405.908 494.638 405.881 494.625 405.853 494.625C405.825 494.625 405.798 494.638 405.775 494.662C405.753 494.686 405.736 494.719 405.728 494.757C403.915 504.803 403.31 515.207 403.938 525.536C403.034 531.208 402.155 536.88 401.302 542.551C399.468 554.661 397.222 566.985 396.159 579.339C396.152 579.404 396.163 579.471 396.191 579.524C396.218 579.577 396.259 579.613 396.306 579.623C396.352 579.633 396.399 579.617 396.436 579.578C396.474 579.539 396.499 579.481 396.506 579.416C397.776 572.794 398.546 565.927 399.588 559.213C400.629 552.499 401.757 545.77 402.842 539.056C404.459 529.292 406.151 519.543 407.877 509.809C409.027 506.238 411.251 503.065 412.922 500.076C414.744 496.796 416.578 493.5 418.346 490.158C421.688 483.985 424.681 477.451 427.297 470.615C427.406 470.262 427.243 470.155 427.178 470.293Z"
    fill="#263238" />
  <path
    d="M427.981 459.072C423.889 466.465 420.344 474.432 417.403 482.847C417.403 482.954 417.489 483.061 417.533 482.954C421.091 475.09 424.585 467.15 428.144 459.256C428.198 459.087 428.046 458.95 427.981 459.072Z"
    fill="#263238" />
  <path
    d="M348.844 435.666C351.253 441.521 353.998 448.557 352.967 455.593C352.316 460.038 350.005 463.656 349.582 468.208C348.649 478.233 355.734 484.87 360.855 489.668C373.614 501.501 391.125 512.047 393.403 536.205C393.49 537.064 394.488 536.849 394.488 536.021C394.493 535.965 394.493 535.909 394.488 535.853C394.488 535.853 394.553 535.776 394.553 535.715C396.222 523.512 396.14 510.961 394.315 498.804C392.405 486.357 388.554 475.167 384.019 464.223C376.337 445.706 368.2 426.745 356.58 412.566C353.325 408.642 346.816 401.575 344.223 410.435C341.76 419.004 345.893 428.507 348.844 435.666Z"
    fill="#FF683B" />
  <path
    d="M360.529 474.922C368.992 487.859 382.445 495.109 389.725 509.61C385.386 487.399 378.268 467.411 367.289 450.059C367.227 449.972 367.192 449.853 367.192 449.729C367.192 449.606 367.227 449.487 367.289 449.4C367.35 449.313 367.434 449.263 367.522 449.263C367.609 449.263 367.693 449.313 367.755 449.4C375.546 460.093 381.775 472.842 386.091 486.924C384.082 477.069 381.438 467.495 378.192 458.321C378.164 458.25 378.156 458.166 378.171 458.087C378.186 458.007 378.223 457.94 378.274 457.9C378.324 457.859 378.384 457.848 378.44 457.87C378.496 457.891 378.543 457.943 378.572 458.015C382.588 468.007 385.459 478.835 387.078 490.097C396.68 522.915 397.57 561.42 395.562 596.032C395.562 596.523 394.998 596.538 395.009 596.032C395.552 568.763 395.248 541.018 390.615 514.377C390.517 513.826 390.42 513.274 390.311 512.722C382.391 497.117 368.992 489.882 360.377 475.06C360.291 474.983 360.432 474.769 360.529 474.922Z"
    fill="#263238" />
  <path
    d="M358.566 463.793C363.003 469.557 367.375 475.443 371.835 481.207C371.835 481.207 371.835 481.375 371.77 481.329C366.734 476.526 362.199 470.753 358.294 464.177C358.153 463.916 358.381 463.563 358.566 463.793Z"
    fill="#263238" />
  <path
    d="M357.86 438.854C361.79 447.956 366.235 456.594 371.151 464.682C371.216 464.79 371.151 464.943 371.043 464.836C365.528 457.427 360.984 448.698 357.622 439.053C357.611 439.01 357.61 438.962 357.622 438.918C357.633 438.874 357.654 438.837 357.683 438.814C357.711 438.79 357.744 438.781 357.777 438.789C357.809 438.796 357.839 438.819 357.86 438.854Z"
    fill="#263238" />
  <path d="M377.867 620.496H416.773L411.533 546.521H383.856L377.867 620.496Z" fill="#455A64" />
  <path d="M382.879 558.554H412.39L411.533 546.521H383.856L382.879 558.554Z" fill="#263238" />
  <path d="M379.082 550.139H415.558V538.32H379.082V550.139Z" fill="#455A64" />
</svg>